<?xml version="1.0" encoding="UTF-8" standalone="no"?>
<!DOCTYPE svg PUBLIC "-//W3C//DTD SVG 1.1//EN"
 "http://www.w3.org/Graphics/SVG/1.1/DTD/svg11.dtd">
<!-- Generated by graphviz version 2.30.1 (20150306.0020)
 -->
<!-- Title: Network Pages: 1 -->
<svg width="738pt" height="1492pt"
 viewBox="0.00 0.00 738.00 1492.00" xmlns="http://www.w3.org/2000/svg" xmlns:xlink="http://www.w3.org/1999/xlink">
<g id="graph0" class="graph" transform="scale(1 1) rotate(0) translate(4 1488)">
<title>Network</title>
<polygon fill="white" stroke="white" points="-4,5 -4,-1488 735,-1488 735,5 -4,5"/>
<!-- lasagne.layers.special.NonlinearityLayer object at 0x7fdf52acd2d0 -->
<g id="node1" class="node"><title>lasagne.layers.special.NonlinearityLayer object at 0x7fdf52acd2d0</title>
<polygon fill="#75df54" stroke="black" points="362,-1141 362,-1179 580,-1179 580,-1141 362,-1141"/>
<text text-anchor="middle" x="471" y="-1163.8" font-family="Times,serif" font-size="14.00">conv 1_bn_nonlin NonlinearityLayer</text>
<text text-anchor="middle" x="471" y="-1148.8" font-family="Times,serif" font-size="14.00">Output shape: (None, 1, 450, 450)</text>
</g>
<!-- lasagne.layers.pool.MaxPool2DLayer object at 0x7fdf52acd890 -->
<g id="node19" class="node"><title>lasagne.layers.pool.MaxPool2DLayer object at 0x7fdf52acd890</title>
<polygon fill="#fcac41" stroke="black" points="304,-1065 304,-1103 508,-1103 508,-1065 304,-1065"/>
<text text-anchor="middle" x="406" y="-1087.8" font-family="Times,serif" font-size="14.00">Max Pool 1 2 MaxPool2DLayer</text>
<text text-anchor="middle" x="406" y="-1072.8" font-family="Times,serif" font-size="14.00">Output shape: (None, 1, 225, 225)</text>
</g>
<!-- lasagne.layers.special.NonlinearityLayer object at 0x7fdf52acd2d0&#45;&gt;lasagne.layers.pool.MaxPool2DLayer object at 0x7fdf52acd890 -->
<g id="edge5" class="edge"><title>lasagne.layers.special.NonlinearityLayer object at 0x7fdf52acd2d0&#45;&gt;lasagne.layers.pool.MaxPool2DLayer object at 0x7fdf52acd890</title>
<path fill="none" stroke="black" d="M454.933,-1140.71C446.983,-1131.66 437.252,-1120.58 428.568,-1110.69"/>
<polygon fill="black" stroke="black" points="431.112,-1108.29 421.883,-1103.08 425.852,-1112.9 431.112,-1108.29"/>
</g>
<!-- lasagne.layers.conv.Conv2DLayer object at 0x7fdf7360c6d0 -->
<g id="node3" class="node"><title>lasagne.layers.conv.Conv2DLayer object at 0x7fdf7360c6d0</title>
<polygon fill="#3173a2" stroke="black" points="500,-989 500,-1027 730,-1027 730,-989 500,-989"/>
<text text-anchor="middle" x="615" y="-1011.8" font-family="Times,serif" font-size="14.00">decide network 1 output Conv2DLayer</text>
<text text-anchor="middle" x="615" y="-996.8" font-family="Times,serif" font-size="14.00">Output shape: (None, 1, 450, 450)</text>
</g>
<!-- lasagne.layers.special.NonlinearityLayer object at 0x7fdf52acd2d0&#45;&gt;lasagne.layers.conv.Conv2DLayer object at 0x7fdf7360c6d0 -->
<g id="edge22" class="edge"><title>lasagne.layers.special.NonlinearityLayer object at 0x7fdf52acd2d0&#45;&gt;lasagne.layers.conv.Conv2DLayer object at 0x7fdf7360c6d0</title>
<path fill="none" stroke="black" d="M488.37,-1140.91C513.885,-1114.33 561.605,-1064.62 590.62,-1034.4"/>
<polygon fill="black" stroke="black" points="593.168,-1036.8 597.569,-1027.16 588.118,-1031.95 593.168,-1036.8"/>
</g>
<!-- lasagne.layers.normalization.BatchNormLayer object at 0x7fdf7361e410 -->
<g id="node2" class="node"><title>lasagne.layers.normalization.BatchNormLayer object at 0x7fdf7361e410</title>
<polygon fill="#3fcd12" stroke="black" points="135,-609 135,-647 339,-647 339,-609 135,-609"/>
<text text-anchor="middle" x="237" y="-631.8" font-family="Times,serif" font-size="14.00">conv 3_bn BatchNormLayer</text>
<text text-anchor="middle" x="237" y="-616.8" font-family="Times,serif" font-size="14.00">Output shape: (None, 4, 112, 112)</text>
</g>
<!-- lasagne.layers.special.NonlinearityLayer object at 0x7fdf7361e350 -->
<g id="node25" class="node"><title>lasagne.layers.special.NonlinearityLayer object at 0x7fdf7361e350</title>
<polygon fill="#75df54" stroke="black" points="128,-533 128,-571 346,-571 346,-533 128,-533"/>
<text text-anchor="middle" x="237" y="-555.8" font-family="Times,serif" font-size="14.00">conv 3_bn_nonlin NonlinearityLayer</text>
<text text-anchor="middle" x="237" y="-540.8" font-family="Times,serif" font-size="14.00">Output shape: (None, 4, 112, 112)</text>
</g>
<!-- lasagne.layers.normalization.BatchNormLayer object at 0x7fdf7361e410&#45;&gt;lasagne.layers.special.NonlinearityLayer object at 0x7fdf7361e350 -->
<g id="edge12" class="edge"><title>lasagne.layers.normalization.BatchNormLayer object at 0x7fdf7361e410&#45;&gt;lasagne.layers.special.NonlinearityLayer object at 0x7fdf7361e350</title>
<path fill="none" stroke="black" d="M237,-608.708C237,-600.464 237,-590.538 237,-581.362"/>
<polygon fill="black" stroke="black" points="240.5,-581.082 237,-571.082 233.5,-581.082 240.5,-581.082"/>
</g>
<!-- utils.maxpool_multiply.MaxPoolMultiplyLayer object at 0x7fdf739a3510 -->
<g id="node27" class="node"><title>utils.maxpool_multiply.MaxPoolMultiplyLayer object at 0x7fdf739a3510</title>
<polygon fill="#91e875" stroke="black" points="439,-685 439,-723 643,-723 643,-685 439,-685"/>
<text text-anchor="middle" x="541" y="-707.8" font-family="Times,serif" font-size="14.00">MaxPoolMultiplyLayer</text>
<text text-anchor="middle" x="541" y="-692.8" font-family="Times,serif" font-size="14.00">Output shape: (None, 1, 225, 225)</text>
</g>
<!-- lasagne.layers.conv.Conv2DLayer object at 0x7fdf7360c6d0&#45;&gt;utils.maxpool_multiply.MaxPoolMultiplyLayer object at 0x7fdf739a3510 -->
<g id="edge24" class="edge"><title>lasagne.layers.conv.Conv2DLayer object at 0x7fdf7360c6d0&#45;&gt;utils.maxpool_multiply.MaxPoolMultiplyLayer object at 0x7fdf739a3510</title>
<path fill="none" stroke="black" d="M617.707,-988.888C623.19,-946.55 632.212,-838.734 596,-760 590.798,-748.69 582.211,-738.394 573.35,-729.847"/>
<polygon fill="black" stroke="black" points="575.669,-727.225 565.912,-723.096 570.964,-732.408 575.669,-727.225"/>
</g>
<!-- lasagne.layers.conv.Conv2DLayer object at 0x7fdf7360ced0 -->
<g id="node4" class="node"><title>lasagne.layers.conv.Conv2DLayer object at 0x7fdf7360ced0</title>
<polygon fill="#3173a2" stroke="black" points="283,-457 283,-495 513,-495 513,-457 283,-457"/>
<text text-anchor="middle" x="398" y="-479.8" font-family="Times,serif" font-size="14.00">decide network 3 output Conv2DLayer</text>
<text text-anchor="middle" x="398" y="-464.8" font-family="Times,serif" font-size="14.00">Output shape: (None, 1, 112, 112)</text>
</g>
<!-- utils.maxpool_multiply.MaxPoolMultiplyLayer object at 0x7fdf739a3750 -->
<g id="node23" class="node"><title>utils.maxpool_multiply.MaxPoolMultiplyLayer object at 0x7fdf739a3750</title>
<polygon fill="#91e875" stroke="black" points="368,-381 368,-419 572,-419 572,-381 368,-381"/>
<text text-anchor="middle" x="470" y="-403.8" font-family="Times,serif" font-size="14.00">MaxPoolMultiplyLayer</text>
<text text-anchor="middle" x="470" y="-388.8" font-family="Times,serif" font-size="14.00">Output shape: (None, 1, 112, 112)</text>
</g>
<!-- lasagne.layers.conv.Conv2DLayer object at 0x7fdf7360ced0&#45;&gt;utils.maxpool_multiply.MaxPoolMultiplyLayer object at 0x7fdf739a3750 -->
<g id="edge25" class="edge"><title>lasagne.layers.conv.Conv2DLayer object at 0x7fdf7360ced0&#45;&gt;utils.maxpool_multiply.MaxPoolMultiplyLayer object at 0x7fdf739a3750</title>
<path fill="none" stroke="black" d="M415.798,-456.708C424.691,-447.567 435.596,-436.36 445.286,-426.4"/>
<polygon fill="black" stroke="black" points="447.942,-428.69 452.407,-419.082 442.925,-423.808 447.942,-428.69"/>
</g>
<!-- utils.maxpool_multiply.MaxPoolMultiplyLayer object at 0x7fdf7360c2d0 -->
<g id="node5" class="node"><title>utils.maxpool_multiply.MaxPoolMultiplyLayer object at 0x7fdf7360c2d0</title>
<polygon fill="#91e875" stroke="black" points="121.5,-1 121.5,-39 312.5,-39 312.5,-1 121.5,-1"/>
<text text-anchor="middle" x="217" y="-23.8" font-family="Times,serif" font-size="14.00">MaxPoolMultiplyLayer</text>
<text text-anchor="middle" x="217" y="-8.8" font-family="Times,serif" font-size="14.00">Output shape: (None, 1, 18, 18)</text>
</g>
<!-- lasagne.layers.conv.Conv2DLayer object at 0x7fdf73979650 -->
<g id="node6" class="node"><title>lasagne.layers.conv.Conv2DLayer object at 0x7fdf73979650</title>
<polygon fill="#3173a2" stroke="black" points="369,-1293 369,-1331 573,-1331 573,-1293 369,-1293"/>
<text text-anchor="middle" x="471" y="-1315.8" font-family="Times,serif" font-size="14.00">conv 1 Conv2DLayer</text>
<text text-anchor="middle" x="471" y="-1300.8" font-family="Times,serif" font-size="14.00">Output shape: (None, 1, 450, 450)</text>
</g>
<!-- lasagne.layers.normalization.BatchNormLayer object at 0x7fdf7360d390 -->
<g id="node7" class="node"><title>lasagne.layers.normalization.BatchNormLayer object at 0x7fdf7360d390</title>
<polygon fill="#3fcd12" stroke="black" points="369,-1217 369,-1255 573,-1255 573,-1217 369,-1217"/>
<text text-anchor="middle" x="471" y="-1239.8" font-family="Times,serif" font-size="14.00">conv 1_bn BatchNormLayer</text>
<text text-anchor="middle" x="471" y="-1224.8" font-family="Times,serif" font-size="14.00">Output shape: (None, 1, 450, 450)</text>
</g>
<!-- lasagne.layers.conv.Conv2DLayer object at 0x7fdf73979650&#45;&gt;lasagne.layers.normalization.BatchNormLayer object at 0x7fdf7360d390 -->
<g id="edge3" class="edge"><title>lasagne.layers.conv.Conv2DLayer object at 0x7fdf73979650&#45;&gt;lasagne.layers.normalization.BatchNormLayer object at 0x7fdf7360d390</title>
<path fill="none" stroke="black" d="M471,-1292.71C471,-1284.46 471,-1274.54 471,-1265.36"/>
<polygon fill="black" stroke="black" points="474.5,-1265.08 471,-1255.08 467.5,-1265.08 474.5,-1265.08"/>
</g>
<!-- lasagne.layers.normalization.BatchNormLayer object at 0x7fdf7360d390&#45;&gt;lasagne.layers.special.NonlinearityLayer object at 0x7fdf52acd2d0 -->
<g id="edge4" class="edge"><title>lasagne.layers.normalization.BatchNormLayer object at 0x7fdf7360d390&#45;&gt;lasagne.layers.special.NonlinearityLayer object at 0x7fdf52acd2d0</title>
<path fill="none" stroke="black" d="M471,-1216.71C471,-1208.46 471,-1198.54 471,-1189.36"/>
<polygon fill="black" stroke="black" points="474.5,-1189.08 471,-1179.08 467.5,-1189.08 474.5,-1189.08"/>
</g>
<!-- lasagne.layers.conv.Conv2DLayer object at 0x7fdf7361e190 -->
<g id="node8" class="node"><title>lasagne.layers.conv.Conv2DLayer object at 0x7fdf7361e190</title>
<polygon fill="#3173a2" stroke="black" points="135,-685 135,-723 339,-723 339,-685 135,-685"/>
<text text-anchor="middle" x="237" y="-707.8" font-family="Times,serif" font-size="14.00">conv 3 Conv2DLayer</text>
<text text-anchor="middle" x="237" y="-692.8" font-family="Times,serif" font-size="14.00">Output shape: (None, 4, 112, 112)</text>
</g>
<!-- lasagne.layers.conv.Conv2DLayer object at 0x7fdf7361e190&#45;&gt;lasagne.layers.normalization.BatchNormLayer object at 0x7fdf7361e410 -->
<g id="edge11" class="edge"><title>lasagne.layers.conv.Conv2DLayer object at 0x7fdf7361e190&#45;&gt;lasagne.layers.normalization.BatchNormLayer object at 0x7fdf7361e410</title>
<path fill="none" stroke="black" d="M237,-684.708C237,-676.464 237,-666.538 237,-657.362"/>
<polygon fill="black" stroke="black" points="240.5,-657.082 237,-647.082 233.5,-657.082 240.5,-657.082"/>
</g>
<!-- lasagne.layers.conv.Conv2DLayer object at 0x7fdf739a3310 -->
<g id="node9" class="node"><title>lasagne.layers.conv.Conv2DLayer object at 0x7fdf739a3310</title>
<polygon fill="#3173a2" stroke="black" points="212,-153 212,-191 442,-191 442,-153 212,-153"/>
<text text-anchor="middle" x="327" y="-175.8" font-family="Times,serif" font-size="14.00">decide network 4 output Conv2DLayer</text>
<text text-anchor="middle" x="327" y="-160.8" font-family="Times,serif" font-size="14.00">Output shape: (None, 1, 56, 56)</text>
</g>
<!-- utils.maxpool_multiply.MaxPoolMultiplyLayer object at 0x7fdf739a37d0 -->
<g id="node15" class="node"><title>utils.maxpool_multiply.MaxPoolMultiplyLayer object at 0x7fdf739a37d0</title>
<polygon fill="#91e875" stroke="black" points="231.5,-77 231.5,-115 422.5,-115 422.5,-77 231.5,-77"/>
<text text-anchor="middle" x="327" y="-99.8" font-family="Times,serif" font-size="14.00">MaxPoolMultiplyLayer</text>
<text text-anchor="middle" x="327" y="-84.8" font-family="Times,serif" font-size="14.00">Output shape: (None, 1, 56, 56)</text>
</g>
<!-- lasagne.layers.conv.Conv2DLayer object at 0x7fdf739a3310&#45;&gt;utils.maxpool_multiply.MaxPoolMultiplyLayer object at 0x7fdf739a37d0 -->
<g id="edge27" class="edge"><title>lasagne.layers.conv.Conv2DLayer object at 0x7fdf739a3310&#45;&gt;utils.maxpool_multiply.MaxPoolMultiplyLayer object at 0x7fdf739a37d0</title>
<path fill="none" stroke="black" d="M327,-152.708C327,-144.464 327,-134.538 327,-125.362"/>
<polygon fill="black" stroke="black" points="330.5,-125.082 327,-115.082 323.5,-125.082 330.5,-125.082"/>
</g>
<!-- lasagne.layers.pool.MaxPool2DLayer object at 0x7fdf7361e150 -->
<g id="node10" class="node"><title>lasagne.layers.pool.MaxPool2DLayer object at 0x7fdf7361e150</title>
<polygon fill="#fcac41" stroke="black" points="135,-761 135,-799 339,-799 339,-761 135,-761"/>
<text text-anchor="middle" x="237" y="-783.8" font-family="Times,serif" font-size="14.00">Max Pool 2 3 MaxPool2DLayer</text>
<text text-anchor="middle" x="237" y="-768.8" font-family="Times,serif" font-size="14.00">Output shape: (None, 2, 112, 112)</text>
</g>
<!-- lasagne.layers.pool.MaxPool2DLayer object at 0x7fdf7361e150&#45;&gt;lasagne.layers.conv.Conv2DLayer object at 0x7fdf7361e190 -->
<g id="edge10" class="edge"><title>lasagne.layers.pool.MaxPool2DLayer object at 0x7fdf7361e150&#45;&gt;lasagne.layers.conv.Conv2DLayer object at 0x7fdf7361e190</title>
<path fill="none" stroke="black" d="M237,-760.708C237,-752.464 237,-742.538 237,-733.362"/>
<polygon fill="black" stroke="black" points="240.5,-733.082 237,-723.082 233.5,-733.082 240.5,-733.082"/>
</g>
<!-- lasagne.layers.conv.Conv2DLayer object at 0x7fdf7361ea10 -->
<g id="node11" class="node"><title>lasagne.layers.conv.Conv2DLayer object at 0x7fdf7361ea10</title>
<polygon fill="#3173a2" stroke="black" points="72.5,-381 72.5,-419 263.5,-419 263.5,-381 72.5,-381"/>
<text text-anchor="middle" x="168" y="-403.8" font-family="Times,serif" font-size="14.00">conv 4 Conv2DLayer</text>
<text text-anchor="middle" x="168" y="-388.8" font-family="Times,serif" font-size="14.00">Output shape: (None, 8, 56, 56)</text>
</g>
<!-- lasagne.layers.normalization.BatchNormLayer object at 0x7fdf7361ec90 -->
<g id="node18" class="node"><title>lasagne.layers.normalization.BatchNormLayer object at 0x7fdf7361ec90</title>
<polygon fill="#3fcd12" stroke="black" points="72.5,-305 72.5,-343 263.5,-343 263.5,-305 72.5,-305"/>
<text text-anchor="middle" x="168" y="-327.8" font-family="Times,serif" font-size="14.00">conv 4_bn BatchNormLayer</text>
<text text-anchor="middle" x="168" y="-312.8" font-family="Times,serif" font-size="14.00">Output shape: (None, 8, 56, 56)</text>
</g>
<!-- lasagne.layers.conv.Conv2DLayer object at 0x7fdf7361ea10&#45;&gt;lasagne.layers.normalization.BatchNormLayer object at 0x7fdf7361ec90 -->
<g id="edge15" class="edge"><title>lasagne.layers.conv.Conv2DLayer object at 0x7fdf7361ea10&#45;&gt;lasagne.layers.normalization.BatchNormLayer object at 0x7fdf7361ec90</title>
<path fill="none" stroke="black" d="M168,-380.708C168,-372.464 168,-362.538 168,-353.362"/>
<polygon fill="black" stroke="black" points="171.5,-353.082 168,-343.082 164.5,-353.082 171.5,-353.082"/>
</g>
<!-- lasagne.layers.special.NonlinearityLayer object at 0x7fdf7361ebd0 -->
<g id="node12" class="node"><title>lasagne.layers.special.NonlinearityLayer object at 0x7fdf7361ebd0</title>
<polygon fill="#75df54" stroke="black" points="59,-229 59,-267 277,-267 277,-229 59,-229"/>
<text text-anchor="middle" x="168" y="-251.8" font-family="Times,serif" font-size="14.00">conv 4_bn_nonlin NonlinearityLayer</text>
<text text-anchor="middle" x="168" y="-236.8" font-family="Times,serif" font-size="14.00">Output shape: (None, 8, 56, 56)</text>
</g>
<!-- lasagne.layers.pool.MaxPool2DLayer object at 0x7fdf7360c290 -->
<g id="node13" class="node"><title>lasagne.layers.pool.MaxPool2DLayer object at 0x7fdf7360c290</title>
<polygon fill="#fcac41" stroke="black" points="0,-153 0,-191 194,-191 194,-153 0,-153"/>
<text text-anchor="middle" x="97" y="-175.8" font-family="Times,serif" font-size="14.00">Max Pool 4 5 MaxPool2DLayer</text>
<text text-anchor="middle" x="97" y="-160.8" font-family="Times,serif" font-size="14.00">Output shape: (None, 8, 18, 18)</text>
</g>
<!-- lasagne.layers.special.NonlinearityLayer object at 0x7fdf7361ebd0&#45;&gt;lasagne.layers.pool.MaxPool2DLayer object at 0x7fdf7360c290 -->
<g id="edge17" class="edge"><title>lasagne.layers.special.NonlinearityLayer object at 0x7fdf7361ebd0&#45;&gt;lasagne.layers.pool.MaxPool2DLayer object at 0x7fdf7360c290</title>
<path fill="none" stroke="black" d="M150.449,-228.708C141.68,-219.567 130.926,-208.36 121.37,-198.4"/>
<polygon fill="black" stroke="black" points="123.798,-195.874 114.349,-191.082 118.746,-200.721 123.798,-195.874"/>
</g>
<!-- lasagne.layers.special.NonlinearityLayer object at 0x7fdf7361ebd0&#45;&gt;lasagne.layers.conv.Conv2DLayer object at 0x7fdf739a3310 -->
<g id="edge19" class="edge"><title>lasagne.layers.special.NonlinearityLayer object at 0x7fdf7361ebd0&#45;&gt;lasagne.layers.conv.Conv2DLayer object at 0x7fdf739a3310</title>
<path fill="none" stroke="black" d="M206.896,-228.898C228.632,-218.781 255.904,-206.089 278.964,-195.356"/>
<polygon fill="black" stroke="black" points="280.641,-198.436 288.231,-191.044 277.687,-192.09 280.641,-198.436"/>
</g>
<!-- lasagne.layers.conv.Conv2DLayer object at 0x7fdf884b4fd0 -->
<g id="node17" class="node"><title>lasagne.layers.conv.Conv2DLayer object at 0x7fdf884b4fd0</title>
<polygon fill="#3173a2" stroke="black" points="12.5,-77 12.5,-115 203.5,-115 203.5,-77 12.5,-77"/>
<text text-anchor="middle" x="108" y="-99.8" font-family="Times,serif" font-size="14.00">prediction layer Conv2DLayer</text>
<text text-anchor="middle" x="108" y="-84.8" font-family="Times,serif" font-size="14.00">Output shape: (None, 1, 18, 18)</text>
</g>
<!-- lasagne.layers.pool.MaxPool2DLayer object at 0x7fdf7360c290&#45;&gt;lasagne.layers.conv.Conv2DLayer object at 0x7fdf884b4fd0 -->
<g id="edge18" class="edge"><title>lasagne.layers.pool.MaxPool2DLayer object at 0x7fdf7360c290&#45;&gt;lasagne.layers.conv.Conv2DLayer object at 0x7fdf884b4fd0</title>
<path fill="none" stroke="black" d="M99.7191,-152.708C100.958,-144.374 102.452,-134.322 103.828,-125.063"/>
<polygon fill="black" stroke="black" points="107.304,-125.488 105.312,-115.082 100.38,-124.458 107.304,-125.488"/>
</g>
<!-- lasagne.layers.conv.Conv2DLayer object at 0x7fdf7360cad0 -->
<g id="node14" class="node"><title>lasagne.layers.conv.Conv2DLayer object at 0x7fdf7360cad0</title>
<polygon fill="#3173a2" stroke="black" points="357,-761 357,-799 587,-799 587,-761 357,-761"/>
<text text-anchor="middle" x="472" y="-783.8" font-family="Times,serif" font-size="14.00">decide network 2 output Conv2DLayer</text>
<text text-anchor="middle" x="472" y="-768.8" font-family="Times,serif" font-size="14.00">Output shape: (None, 1, 225, 225)</text>
</g>
<!-- lasagne.layers.conv.Conv2DLayer object at 0x7fdf7360cad0&#45;&gt;utils.maxpool_multiply.MaxPoolMultiplyLayer object at 0x7fdf739a3510 -->
<g id="edge23" class="edge"><title>lasagne.layers.conv.Conv2DLayer object at 0x7fdf7360cad0&#45;&gt;utils.maxpool_multiply.MaxPoolMultiplyLayer object at 0x7fdf739a3510</title>
<path fill="none" stroke="black" d="M489.056,-760.708C497.579,-751.567 508.029,-740.36 517.316,-730.4"/>
<polygon fill="black" stroke="black" points="519.88,-732.782 524.14,-723.082 514.76,-728.009 519.88,-732.782"/>
</g>
<!-- utils.maxpool_multiply.MaxPoolMultiplyLayer object at 0x7fdf739a37d0&#45;&gt;utils.maxpool_multiply.MaxPoolMultiplyLayer object at 0x7fdf7360c2d0 -->
<g id="edge30" class="edge"><title>utils.maxpool_multiply.MaxPoolMultiplyLayer object at 0x7fdf739a37d0&#45;&gt;utils.maxpool_multiply.MaxPoolMultiplyLayer object at 0x7fdf7360c2d0</title>
<path fill="none" stroke="black" d="M300.091,-76.8976C285.708,-67.2221 267.823,-55.1898 252.334,-44.7698"/>
<polygon fill="black" stroke="black" points="254.263,-41.8498 244.012,-39.172 250.356,-47.6579 254.263,-41.8498"/>
</g>
<!-- lasagne.layers.normalization.BatchNormLayer object at 0x7fdf884b4910 -->
<g id="node16" class="node"><title>lasagne.layers.normalization.BatchNormLayer object at 0x7fdf884b4910</title>
<polygon fill="#3fcd12" stroke="black" points="365,-1369 365,-1407 577,-1407 577,-1369 365,-1369"/>
<text text-anchor="middle" x="471" y="-1391.8" font-family="Times,serif" font-size="14.00">network input_bn BatchNormLayer</text>
<text text-anchor="middle" x="471" y="-1376.8" font-family="Times,serif" font-size="14.00">Output shape: (None, 1, 450, 450)</text>
</g>
<!-- lasagne.layers.normalization.BatchNormLayer object at 0x7fdf884b4910&#45;&gt;lasagne.layers.conv.Conv2DLayer object at 0x7fdf73979650 -->
<g id="edge2" class="edge"><title>lasagne.layers.normalization.BatchNormLayer object at 0x7fdf884b4910&#45;&gt;lasagne.layers.conv.Conv2DLayer object at 0x7fdf73979650</title>
<path fill="none" stroke="black" d="M471,-1368.71C471,-1360.46 471,-1350.54 471,-1341.36"/>
<polygon fill="black" stroke="black" points="474.5,-1341.08 471,-1331.08 467.5,-1341.08 474.5,-1341.08"/>
</g>
<!-- lasagne.layers.conv.Conv2DLayer object at 0x7fdf884b4fd0&#45;&gt;utils.maxpool_multiply.MaxPoolMultiplyLayer object at 0x7fdf7360c2d0 -->
<g id="edge29" class="edge"><title>lasagne.layers.conv.Conv2DLayer object at 0x7fdf884b4fd0&#45;&gt;utils.maxpool_multiply.MaxPoolMultiplyLayer object at 0x7fdf7360c2d0</title>
<path fill="none" stroke="black" d="M134.664,-76.8976C148.784,-67.3117 166.311,-55.4125 181.561,-45.0597"/>
<polygon fill="black" stroke="black" points="183.926,-47.6847 190.233,-39.172 179.994,-41.8932 183.926,-47.6847"/>
</g>
<!-- lasagne.layers.normalization.BatchNormLayer object at 0x7fdf7361ec90&#45;&gt;lasagne.layers.special.NonlinearityLayer object at 0x7fdf7361ebd0 -->
<g id="edge16" class="edge"><title>lasagne.layers.normalization.BatchNormLayer object at 0x7fdf7361ec90&#45;&gt;lasagne.layers.special.NonlinearityLayer object at 0x7fdf7361ebd0</title>
<path fill="none" stroke="black" d="M168,-304.708C168,-296.464 168,-286.538 168,-277.362"/>
<polygon fill="black" stroke="black" points="171.5,-277.082 168,-267.082 164.5,-277.082 171.5,-277.082"/>
</g>
<!-- lasagne.layers.conv.Conv2DLayer object at 0x7fdf52acd8d0 -->
<g id="node21" class="node"><title>lasagne.layers.conv.Conv2DLayer object at 0x7fdf52acd8d0</title>
<polygon fill="#3173a2" stroke="black" points="278,-989 278,-1027 482,-1027 482,-989 278,-989"/>
<text text-anchor="middle" x="380" y="-1011.8" font-family="Times,serif" font-size="14.00">conv 2 Conv2DLayer</text>
<text text-anchor="middle" x="380" y="-996.8" font-family="Times,serif" font-size="14.00">Output shape: (None, 2, 225, 225)</text>
</g>
<!-- lasagne.layers.pool.MaxPool2DLayer object at 0x7fdf52acd890&#45;&gt;lasagne.layers.conv.Conv2DLayer object at 0x7fdf52acd8d0 -->
<g id="edge6" class="edge"><title>lasagne.layers.pool.MaxPool2DLayer object at 0x7fdf52acd890&#45;&gt;lasagne.layers.conv.Conv2DLayer object at 0x7fdf52acd8d0</title>
<path fill="none" stroke="black" d="M399.573,-1064.71C396.613,-1056.28 393.037,-1046.11 389.755,-1036.76"/>
<polygon fill="black" stroke="black" points="392.97,-1035.36 386.353,-1027.08 386.366,-1037.68 392.97,-1035.36"/>
</g>
<!-- lasagne.layers.input.InputLayer object at 0x7fdf884b48d0 -->
<g id="node20" class="node"><title>lasagne.layers.input.InputLayer object at 0x7fdf884b48d0</title>
<polygon fill="#b3f1a0" stroke="black" points="369,-1445 369,-1483 573,-1483 573,-1445 369,-1445"/>
<text text-anchor="middle" x="471" y="-1467.8" font-family="Times,serif" font-size="14.00">network input InputLayer</text>
<text text-anchor="middle" x="471" y="-1452.8" font-family="Times,serif" font-size="14.00">Output shape: (None, 1, 450, 450)</text>
</g>
<!-- lasagne.layers.input.InputLayer object at 0x7fdf884b48d0&#45;&gt;lasagne.layers.normalization.BatchNormLayer object at 0x7fdf884b4910 -->
<g id="edge1" class="edge"><title>lasagne.layers.input.InputLayer object at 0x7fdf884b48d0&#45;&gt;lasagne.layers.normalization.BatchNormLayer object at 0x7fdf884b4910</title>
<path fill="none" stroke="black" d="M471,-1444.71C471,-1436.46 471,-1426.54 471,-1417.36"/>
<polygon fill="black" stroke="black" points="474.5,-1417.08 471,-1407.08 467.5,-1417.08 474.5,-1417.08"/>
</g>
<!-- lasagne.layers.normalization.BatchNormLayer object at 0x7fdf52acdb50 -->
<g id="node22" class="node"><title>lasagne.layers.normalization.BatchNormLayer object at 0x7fdf52acdb50</title>
<polygon fill="#3fcd12" stroke="black" points="278,-913 278,-951 482,-951 482,-913 278,-913"/>
<text text-anchor="middle" x="380" y="-935.8" font-family="Times,serif" font-size="14.00">conv 2_bn BatchNormLayer</text>
<text text-anchor="middle" x="380" y="-920.8" font-family="Times,serif" font-size="14.00">Output shape: (None, 2, 225, 225)</text>
</g>
<!-- lasagne.layers.conv.Conv2DLayer object at 0x7fdf52acd8d0&#45;&gt;lasagne.layers.normalization.BatchNormLayer object at 0x7fdf52acdb50 -->
<g id="edge7" class="edge"><title>lasagne.layers.conv.Conv2DLayer object at 0x7fdf52acd8d0&#45;&gt;lasagne.layers.normalization.BatchNormLayer object at 0x7fdf52acdb50</title>
<path fill="none" stroke="black" d="M380,-988.708C380,-980.464 380,-970.538 380,-961.362"/>
<polygon fill="black" stroke="black" points="383.5,-961.082 380,-951.082 376.5,-961.082 383.5,-961.082"/>
</g>
<!-- lasagne.layers.special.NonlinearityLayer object at 0x7fdf52acda90 -->
<g id="node26" class="node"><title>lasagne.layers.special.NonlinearityLayer object at 0x7fdf52acda90</title>
<polygon fill="#75df54" stroke="black" points="271,-837 271,-875 489,-875 489,-837 271,-837"/>
<text text-anchor="middle" x="380" y="-859.8" font-family="Times,serif" font-size="14.00">conv 2_bn_nonlin NonlinearityLayer</text>
<text text-anchor="middle" x="380" y="-844.8" font-family="Times,serif" font-size="14.00">Output shape: (None, 2, 225, 225)</text>
</g>
<!-- lasagne.layers.normalization.BatchNormLayer object at 0x7fdf52acdb50&#45;&gt;lasagne.layers.special.NonlinearityLayer object at 0x7fdf52acda90 -->
<g id="edge8" class="edge"><title>lasagne.layers.normalization.BatchNormLayer object at 0x7fdf52acdb50&#45;&gt;lasagne.layers.special.NonlinearityLayer object at 0x7fdf52acda90</title>
<path fill="none" stroke="black" d="M380,-912.708C380,-904.464 380,-894.538 380,-885.362"/>
<polygon fill="black" stroke="black" points="383.5,-885.082 380,-875.082 376.5,-885.082 383.5,-885.082"/>
</g>
<!-- utils.maxpool_multiply.MaxPoolMultiplyLayer object at 0x7fdf739a3750&#45;&gt;utils.maxpool_multiply.MaxPoolMultiplyLayer object at 0x7fdf739a37d0 -->
<g id="edge28" class="edge"><title>utils.maxpool_multiply.MaxPoolMultiplyLayer object at 0x7fdf739a3750&#45;&gt;utils.maxpool_multiply.MaxPoolMultiplyLayer object at 0x7fdf739a37d0</title>
<path fill="none" stroke="black" d="M474.372,-380.792C483.806,-336.839 501.376,-223.308 451,-152 441.004,-137.85 426.514,-127.291 410.938,-119.427"/>
<polygon fill="black" stroke="black" points="412.209,-116.158 401.667,-115.102 409.249,-122.502 412.209,-116.158"/>
</g>
<!-- lasagne.layers.pool.MaxPool2DLayer object at 0x7fdf7361e9d0 -->
<g id="node24" class="node"><title>lasagne.layers.pool.MaxPool2DLayer object at 0x7fdf7361e9d0</title>
<polygon fill="#fcac41" stroke="black" points="71,-457 71,-495 265,-495 265,-457 71,-457"/>
<text text-anchor="middle" x="168" y="-479.8" font-family="Times,serif" font-size="14.00">Max Pool 3 4 MaxPool2DLayer</text>
<text text-anchor="middle" x="168" y="-464.8" font-family="Times,serif" font-size="14.00">Output shape: (None, 4, 56, 56)</text>
</g>
<!-- lasagne.layers.pool.MaxPool2DLayer object at 0x7fdf7361e9d0&#45;&gt;lasagne.layers.conv.Conv2DLayer object at 0x7fdf7361ea10 -->
<g id="edge14" class="edge"><title>lasagne.layers.pool.MaxPool2DLayer object at 0x7fdf7361e9d0&#45;&gt;lasagne.layers.conv.Conv2DLayer object at 0x7fdf7361ea10</title>
<path fill="none" stroke="black" d="M168,-456.708C168,-448.464 168,-438.538 168,-429.362"/>
<polygon fill="black" stroke="black" points="171.5,-429.082 168,-419.082 164.5,-429.082 171.5,-429.082"/>
</g>
<!-- lasagne.layers.special.NonlinearityLayer object at 0x7fdf7361e350&#45;&gt;lasagne.layers.pool.MaxPool2DLayer object at 0x7fdf7361e9d0 -->
<g id="edge13" class="edge"><title>lasagne.layers.special.NonlinearityLayer object at 0x7fdf7361e350&#45;&gt;lasagne.layers.pool.MaxPool2DLayer object at 0x7fdf7361e9d0</title>
<path fill="none" stroke="black" d="M219.944,-532.708C211.421,-523.567 200.971,-512.36 191.684,-502.4"/>
<polygon fill="black" stroke="black" points="194.24,-500.009 184.86,-495.082 189.12,-504.782 194.24,-500.009"/>
</g>
<!-- lasagne.layers.special.NonlinearityLayer object at 0x7fdf7361e350&#45;&gt;lasagne.layers.conv.Conv2DLayer object at 0x7fdf7360ced0 -->
<g id="edge20" class="edge"><title>lasagne.layers.special.NonlinearityLayer object at 0x7fdf7361e350&#45;&gt;lasagne.layers.conv.Conv2DLayer object at 0x7fdf7360ced0</title>
<path fill="none" stroke="black" d="M276.385,-532.898C298.395,-522.781 326.01,-510.089 349.36,-499.356"/>
<polygon fill="black" stroke="black" points="351.118,-502.4 358.743,-495.044 348.195,-496.04 351.118,-502.4"/>
</g>
<!-- lasagne.layers.special.NonlinearityLayer object at 0x7fdf52acda90&#45;&gt;lasagne.layers.pool.MaxPool2DLayer object at 0x7fdf7361e150 -->
<g id="edge9" class="edge"><title>lasagne.layers.special.NonlinearityLayer object at 0x7fdf52acda90&#45;&gt;lasagne.layers.pool.MaxPool2DLayer object at 0x7fdf7361e150</title>
<path fill="none" stroke="black" d="M345.018,-836.898C325.802,-826.953 301.774,-814.52 281.263,-803.905"/>
<polygon fill="black" stroke="black" points="282.606,-800.66 272.116,-799.172 279.389,-806.876 282.606,-800.66"/>
</g>
<!-- lasagne.layers.special.NonlinearityLayer object at 0x7fdf52acda90&#45;&gt;lasagne.layers.conv.Conv2DLayer object at 0x7fdf7360cad0 -->
<g id="edge21" class="edge"><title>lasagne.layers.special.NonlinearityLayer object at 0x7fdf52acda90&#45;&gt;lasagne.layers.conv.Conv2DLayer object at 0x7fdf7360cad0</title>
<path fill="none" stroke="black" d="M402.742,-836.708C414.44,-827.299 428.861,-815.699 441.51,-805.525"/>
<polygon fill="black" stroke="black" points="443.922,-808.077 449.52,-799.082 439.534,-802.622 443.922,-808.077"/>
</g>
<!-- utils.maxpool_multiply.MaxPoolMultiplyLayer object at 0x7fdf739a3510&#45;&gt;utils.maxpool_multiply.MaxPoolMultiplyLayer object at 0x7fdf739a3750 -->
<g id="edge26" class="edge"><title>utils.maxpool_multiply.MaxPoolMultiplyLayer object at 0x7fdf739a3510&#45;&gt;utils.maxpool_multiply.MaxPoolMultiplyLayer object at 0x7fdf739a3750</title>
<path fill="none" stroke="black" d="M543.556,-684.956C548.719,-642.763 557.105,-535.234 522,-456 517.101,-444.942 509.003,-434.726 500.639,-426.176"/>
<polygon fill="black" stroke="black" points="502.929,-423.522 493.295,-419.112 498.076,-428.567 502.929,-423.522"/>
</g>
</g>
</svg>
