<?xml version="1.0" encoding="UTF-8" standalone="no"?>
<!DOCTYPE svg PUBLIC "-//W3C//DTD SVG 1.1//EN"
 "http://www.w3.org/Graphics/SVG/1.1/DTD/svg11.dtd">
<!-- Generated by graphviz version 2.30.1 (20150306.0020)
 -->
<!-- Title: Network Pages: 1 -->
<svg width="664pt" height="656pt"
 viewBox="0.00 0.00 664.00 656.00" xmlns="http://www.w3.org/2000/svg" xmlns:xlink="http://www.w3.org/1999/xlink">
<g id="graph0" class="graph" transform="scale(1 1) rotate(0) translate(4 652)">
<title>Network</title>
<polygon fill="white" stroke="white" points="-4,5 -4,-652 661,-652 661,5 -4,5"/>
<!-- lasagne.layers.pool.MaxPool2DLayer object at 0x7f7cf4203950 -->
<g id="node1" class="node"><title>lasagne.layers.pool.MaxPool2DLayer object at 0x7f7cf4203950</title>
<polygon fill="#fcac41" stroke="black" points="71,-305 71,-343 265,-343 265,-305 71,-305"/>
<text text-anchor="middle" x="168" y="-327.8" font-family="Times,serif" font-size="14.00">Max Pool 2 3 MaxPool2DLayer</text>
<text text-anchor="middle" x="168" y="-312.8" font-family="Times,serif" font-size="14.00">Output shape: (None, 1, 50, 50)</text>
</g>
<!-- lasagne.layers.conv.Conv2DLayer object at 0x7f7cf4203c90 -->
<g id="node5" class="node"><title>lasagne.layers.conv.Conv2DLayer object at 0x7f7cf4203c90</title>
<polygon fill="#3173a2" stroke="black" points="72.5,-229 72.5,-267 263.5,-267 263.5,-229 72.5,-229"/>
<text text-anchor="middle" x="168" y="-251.8" font-family="Times,serif" font-size="14.00">conv 3 Conv2DLayer</text>
<text text-anchor="middle" x="168" y="-236.8" font-family="Times,serif" font-size="14.00">Output shape: (None, 3, 50, 50)</text>
</g>
<!-- lasagne.layers.pool.MaxPool2DLayer object at 0x7f7cf4203950&#45;&gt;lasagne.layers.conv.Conv2DLayer object at 0x7f7cf4203c90 -->
<g id="edge5" class="edge"><title>lasagne.layers.pool.MaxPool2DLayer object at 0x7f7cf4203950&#45;&gt;lasagne.layers.conv.Conv2DLayer object at 0x7f7cf4203c90</title>
<path fill="none" stroke="black" d="M168,-304.708C168,-296.464 168,-286.538 168,-277.362"/>
<polygon fill="black" stroke="black" points="171.5,-277.082 168,-267.082 164.5,-277.082 171.5,-277.082"/>
</g>
<!-- lasagne.layers.conv.Conv2DLayer object at 0x7f7cf4203910 -->
<g id="node2" class="node"><title>lasagne.layers.conv.Conv2DLayer object at 0x7f7cf4203910</title>
<polygon fill="#3173a2" stroke="black" points="204,-381 204,-419 408,-419 408,-381 204,-381"/>
<text text-anchor="middle" x="306" y="-403.8" font-family="Times,serif" font-size="14.00">conv 2 Conv2DLayer</text>
<text text-anchor="middle" x="306" y="-388.8" font-family="Times,serif" font-size="14.00">Output shape: (None, 1, 100, 100)</text>
</g>
<!-- lasagne.layers.conv.Conv2DLayer object at 0x7f7cf4203910&#45;&gt;lasagne.layers.pool.MaxPool2DLayer object at 0x7f7cf4203950 -->
<g id="edge4" class="edge"><title>lasagne.layers.conv.Conv2DLayer object at 0x7f7cf4203910&#45;&gt;lasagne.layers.pool.MaxPool2DLayer object at 0x7f7cf4203950</title>
<path fill="none" stroke="black" d="M272.241,-380.898C253.697,-370.953 230.509,-358.52 210.715,-347.905"/>
<polygon fill="black" stroke="black" points="212.355,-344.813 201.888,-343.172 209.047,-350.982 212.355,-344.813"/>
</g>
<!-- lasagne.layers.conv.Conv2DLayer object at 0x7f7cf6a9b850 -->
<g id="node13" class="node"><title>lasagne.layers.conv.Conv2DLayer object at 0x7f7cf6a9b850</title>
<polygon fill="#3173a2" stroke="black" points="283,-305 283,-343 513,-343 513,-305 283,-305"/>
<text text-anchor="middle" x="398" y="-327.8" font-family="Times,serif" font-size="14.00">decide network 2 output Conv2DLayer</text>
<text text-anchor="middle" x="398" y="-312.8" font-family="Times,serif" font-size="14.00">Output shape: (None, 1, 100, 100)</text>
</g>
<!-- lasagne.layers.conv.Conv2DLayer object at 0x7f7cf4203910&#45;&gt;lasagne.layers.conv.Conv2DLayer object at 0x7f7cf6a9b850 -->
<g id="edge9" class="edge"><title>lasagne.layers.conv.Conv2DLayer object at 0x7f7cf4203910&#45;&gt;lasagne.layers.conv.Conv2DLayer object at 0x7f7cf6a9b850</title>
<path fill="none" stroke="black" d="M328.742,-380.708C340.44,-371.299 354.861,-359.699 367.51,-349.525"/>
<polygon fill="black" stroke="black" points="369.922,-352.077 375.52,-343.082 365.534,-346.622 369.922,-352.077"/>
</g>
<!-- lasagne.layers.pool.MaxPool2DLayer object at 0x7f7cf4203cd0 -->
<g id="node3" class="node"><title>lasagne.layers.pool.MaxPool2DLayer object at 0x7f7cf4203cd0</title>
<polygon fill="#fcac41" stroke="black" points="0,-153 0,-191 194,-191 194,-153 0,-153"/>
<text text-anchor="middle" x="97" y="-175.8" font-family="Times,serif" font-size="14.00">Max Pool 3 4 MaxPool2DLayer</text>
<text text-anchor="middle" x="97" y="-160.8" font-family="Times,serif" font-size="14.00">Output shape: (None, 3, 25, 25)</text>
</g>
<!-- lasagne.layers.conv.Conv2DLayer object at 0x7f7cf42034d0 -->
<g id="node8" class="node"><title>lasagne.layers.conv.Conv2DLayer object at 0x7f7cf42034d0</title>
<polygon fill="#3173a2" stroke="black" points="12.5,-77 12.5,-115 203.5,-115 203.5,-77 12.5,-77"/>
<text text-anchor="middle" x="108" y="-99.8" font-family="Times,serif" font-size="14.00">prediction layer Conv2DLayer</text>
<text text-anchor="middle" x="108" y="-84.8" font-family="Times,serif" font-size="14.00">Output shape: (None, 1, 25, 25)</text>
</g>
<!-- lasagne.layers.pool.MaxPool2DLayer object at 0x7f7cf4203cd0&#45;&gt;lasagne.layers.conv.Conv2DLayer object at 0x7f7cf42034d0 -->
<g id="edge7" class="edge"><title>lasagne.layers.pool.MaxPool2DLayer object at 0x7f7cf4203cd0&#45;&gt;lasagne.layers.conv.Conv2DLayer object at 0x7f7cf42034d0</title>
<path fill="none" stroke="black" d="M99.7191,-152.708C100.958,-144.374 102.452,-134.322 103.828,-125.063"/>
<polygon fill="black" stroke="black" points="107.304,-125.488 105.312,-115.082 100.38,-124.458 107.304,-125.488"/>
</g>
<!-- utils.maxpool_multiply.MaxPoolMultiplyLayer object at 0x7f7cf6a9b050 -->
<g id="node4" class="node"><title>utils.maxpool_multiply.MaxPoolMultiplyLayer object at 0x7f7cf6a9b050</title>
<polygon fill="#91e875" stroke="black" points="121.5,-1 121.5,-39 312.5,-39 312.5,-1 121.5,-1"/>
<text text-anchor="middle" x="217" y="-23.8" font-family="Times,serif" font-size="14.00">MaxPoolMultiplyLayer</text>
<text text-anchor="middle" x="217" y="-8.8" font-family="Times,serif" font-size="14.00">Output shape: (None, 1, 25, 25)</text>
</g>
<!-- lasagne.layers.conv.Conv2DLayer object at 0x7f7cf4203c90&#45;&gt;lasagne.layers.pool.MaxPool2DLayer object at 0x7f7cf4203cd0 -->
<g id="edge6" class="edge"><title>lasagne.layers.conv.Conv2DLayer object at 0x7f7cf4203c90&#45;&gt;lasagne.layers.pool.MaxPool2DLayer object at 0x7f7cf4203cd0</title>
<path fill="none" stroke="black" d="M150.449,-228.708C141.68,-219.567 130.926,-208.36 121.37,-198.4"/>
<polygon fill="black" stroke="black" points="123.798,-195.874 114.349,-191.082 118.746,-200.721 123.798,-195.874"/>
</g>
<!-- lasagne.layers.conv.Conv2DLayer object at 0x7f7cf6a9bc50 -->
<g id="node9" class="node"><title>lasagne.layers.conv.Conv2DLayer object at 0x7f7cf6a9bc50</title>
<polygon fill="#3173a2" stroke="black" points="212,-153 212,-191 442,-191 442,-153 212,-153"/>
<text text-anchor="middle" x="327" y="-175.8" font-family="Times,serif" font-size="14.00">decide network 3 output Conv2DLayer</text>
<text text-anchor="middle" x="327" y="-160.8" font-family="Times,serif" font-size="14.00">Output shape: (None, 1, 50, 50)</text>
</g>
<!-- lasagne.layers.conv.Conv2DLayer object at 0x7f7cf4203c90&#45;&gt;lasagne.layers.conv.Conv2DLayer object at 0x7f7cf6a9bc50 -->
<g id="edge8" class="edge"><title>lasagne.layers.conv.Conv2DLayer object at 0x7f7cf4203c90&#45;&gt;lasagne.layers.conv.Conv2DLayer object at 0x7f7cf6a9bc50</title>
<path fill="none" stroke="black" d="M206.896,-228.898C228.632,-218.781 255.904,-206.089 278.964,-195.356"/>
<polygon fill="black" stroke="black" points="280.641,-198.436 288.231,-191.044 277.687,-192.09 280.641,-198.436"/>
</g>
<!-- lasagne.layers.conv.Conv2DLayer object at 0x7f7cf4203510 -->
<g id="node6" class="node"><title>lasagne.layers.conv.Conv2DLayer object at 0x7f7cf4203510</title>
<polygon fill="#3173a2" stroke="black" points="295,-533 295,-571 499,-571 499,-533 295,-533"/>
<text text-anchor="middle" x="397" y="-555.8" font-family="Times,serif" font-size="14.00">conv 1 Conv2DLayer</text>
<text text-anchor="middle" x="397" y="-540.8" font-family="Times,serif" font-size="14.00">Output shape: (None, 1, 200, 200)</text>
</g>
<!-- lasagne.layers.pool.MaxPool2DLayer object at 0x7f7cf4203550 -->
<g id="node10" class="node"><title>lasagne.layers.pool.MaxPool2DLayer object at 0x7f7cf4203550</title>
<polygon fill="#fcac41" stroke="black" points="230,-457 230,-495 434,-495 434,-457 230,-457"/>
<text text-anchor="middle" x="332" y="-479.8" font-family="Times,serif" font-size="14.00">Max Pool 1 2 MaxPool2DLayer</text>
<text text-anchor="middle" x="332" y="-464.8" font-family="Times,serif" font-size="14.00">Output shape: (None, 1, 100, 100)</text>
</g>
<!-- lasagne.layers.conv.Conv2DLayer object at 0x7f7cf4203510&#45;&gt;lasagne.layers.pool.MaxPool2DLayer object at 0x7f7cf4203550 -->
<g id="edge2" class="edge"><title>lasagne.layers.conv.Conv2DLayer object at 0x7f7cf4203510&#45;&gt;lasagne.layers.pool.MaxPool2DLayer object at 0x7f7cf4203550</title>
<path fill="none" stroke="black" d="M380.933,-532.708C372.983,-523.657 363.252,-512.579 354.568,-502.693"/>
<polygon fill="black" stroke="black" points="357.112,-500.285 347.883,-495.082 351.852,-504.905 357.112,-500.285"/>
</g>
<!-- lasagne.layers.conv.Conv2DLayer object at 0x7f7cf6a9b450 -->
<g id="node11" class="node"><title>lasagne.layers.conv.Conv2DLayer object at 0x7f7cf6a9b450</title>
<polygon fill="#3173a2" stroke="black" points="426,-381 426,-419 656,-419 656,-381 426,-381"/>
<text text-anchor="middle" x="541" y="-403.8" font-family="Times,serif" font-size="14.00">decide network 1 output Conv2DLayer</text>
<text text-anchor="middle" x="541" y="-388.8" font-family="Times,serif" font-size="14.00">Output shape: (None, 1, 200, 200)</text>
</g>
<!-- lasagne.layers.conv.Conv2DLayer object at 0x7f7cf4203510&#45;&gt;lasagne.layers.conv.Conv2DLayer object at 0x7f7cf6a9b450 -->
<g id="edge10" class="edge"><title>lasagne.layers.conv.Conv2DLayer object at 0x7f7cf4203510&#45;&gt;lasagne.layers.conv.Conv2DLayer object at 0x7f7cf6a9b450</title>
<path fill="none" stroke="black" d="M414.37,-532.906C439.885,-506.328 487.605,-456.62 516.62,-426.396"/>
<polygon fill="black" stroke="black" points="519.168,-428.795 523.569,-419.158 514.118,-423.948 519.168,-428.795"/>
</g>
<!-- utils.maxpool_multiply.MaxPoolMultiplyLayer object at 0x7f7cf6a940d0 -->
<g id="node7" class="node"><title>utils.maxpool_multiply.MaxPoolMultiplyLayer object at 0x7f7cf6a940d0</title>
<polygon fill="#91e875" stroke="black" points="231.5,-77 231.5,-115 422.5,-115 422.5,-77 231.5,-77"/>
<text text-anchor="middle" x="327" y="-99.8" font-family="Times,serif" font-size="14.00">MaxPoolMultiplyLayer</text>
<text text-anchor="middle" x="327" y="-84.8" font-family="Times,serif" font-size="14.00">Output shape: (None, 1, 50, 50)</text>
</g>
<!-- utils.maxpool_multiply.MaxPoolMultiplyLayer object at 0x7f7cf6a940d0&#45;&gt;utils.maxpool_multiply.MaxPoolMultiplyLayer object at 0x7f7cf6a9b050 -->
<g id="edge16" class="edge"><title>utils.maxpool_multiply.MaxPoolMultiplyLayer object at 0x7f7cf6a940d0&#45;&gt;utils.maxpool_multiply.MaxPoolMultiplyLayer object at 0x7f7cf6a9b050</title>
<path fill="none" stroke="black" d="M300.091,-76.8976C285.708,-67.2221 267.823,-55.1898 252.334,-44.7698"/>
<polygon fill="black" stroke="black" points="254.263,-41.8498 244.012,-39.172 250.356,-47.6579 254.263,-41.8498"/>
</g>
<!-- lasagne.layers.conv.Conv2DLayer object at 0x7f7cf42034d0&#45;&gt;utils.maxpool_multiply.MaxPoolMultiplyLayer object at 0x7f7cf6a9b050 -->
<g id="edge15" class="edge"><title>lasagne.layers.conv.Conv2DLayer object at 0x7f7cf42034d0&#45;&gt;utils.maxpool_multiply.MaxPoolMultiplyLayer object at 0x7f7cf6a9b050</title>
<path fill="none" stroke="black" d="M134.664,-76.8976C148.784,-67.3117 166.311,-55.4125 181.561,-45.0597"/>
<polygon fill="black" stroke="black" points="183.926,-47.6847 190.233,-39.172 179.994,-41.8932 183.926,-47.6847"/>
</g>
<!-- lasagne.layers.conv.Conv2DLayer object at 0x7f7cf6a9bc50&#45;&gt;utils.maxpool_multiply.MaxPoolMultiplyLayer object at 0x7f7cf6a940d0 -->
<g id="edge13" class="edge"><title>lasagne.layers.conv.Conv2DLayer object at 0x7f7cf6a9bc50&#45;&gt;utils.maxpool_multiply.MaxPoolMultiplyLayer object at 0x7f7cf6a940d0</title>
<path fill="none" stroke="black" d="M327,-152.708C327,-144.464 327,-134.538 327,-125.362"/>
<polygon fill="black" stroke="black" points="330.5,-125.082 327,-115.082 323.5,-125.082 330.5,-125.082"/>
</g>
<!-- lasagne.layers.pool.MaxPool2DLayer object at 0x7f7cf4203550&#45;&gt;lasagne.layers.conv.Conv2DLayer object at 0x7f7cf4203910 -->
<g id="edge3" class="edge"><title>lasagne.layers.pool.MaxPool2DLayer object at 0x7f7cf4203550&#45;&gt;lasagne.layers.conv.Conv2DLayer object at 0x7f7cf4203910</title>
<path fill="none" stroke="black" d="M325.573,-456.708C322.613,-448.284 319.037,-438.105 315.755,-428.765"/>
<polygon fill="black" stroke="black" points="318.97,-427.356 312.353,-419.082 312.366,-429.677 318.97,-427.356"/>
</g>
<!-- utils.maxpool_multiply.MaxPoolMultiplyLayer object at 0x7f7cf6a9be50 -->
<g id="node12" class="node"><title>utils.maxpool_multiply.MaxPoolMultiplyLayer object at 0x7f7cf6a9be50</title>
<polygon fill="#91e875" stroke="black" points="368,-229 368,-267 572,-267 572,-229 368,-229"/>
<text text-anchor="middle" x="470" y="-251.8" font-family="Times,serif" font-size="14.00">MaxPoolMultiplyLayer</text>
<text text-anchor="middle" x="470" y="-236.8" font-family="Times,serif" font-size="14.00">Output shape: (None, 1, 100, 100)</text>
</g>
<!-- lasagne.layers.conv.Conv2DLayer object at 0x7f7cf6a9b450&#45;&gt;utils.maxpool_multiply.MaxPoolMultiplyLayer object at 0x7f7cf6a9be50 -->
<g id="edge12" class="edge"><title>lasagne.layers.conv.Conv2DLayer object at 0x7f7cf6a9b450&#45;&gt;utils.maxpool_multiply.MaxPoolMultiplyLayer object at 0x7f7cf6a9be50</title>
<path fill="none" stroke="black" d="M540.338,-380.866C538.958,-360.989 534.751,-328.65 522,-304 516.396,-293.167 508.021,-282.96 499.62,-274.349"/>
<polygon fill="black" stroke="black" points="501.905,-271.688 492.3,-267.216 497.02,-276.702 501.905,-271.688"/>
</g>
<!-- utils.maxpool_multiply.MaxPoolMultiplyLayer object at 0x7f7cf6a9be50&#45;&gt;utils.maxpool_multiply.MaxPoolMultiplyLayer object at 0x7f7cf6a940d0 -->
<g id="edge14" class="edge"><title>utils.maxpool_multiply.MaxPoolMultiplyLayer object at 0x7f7cf6a9be50&#45;&gt;utils.maxpool_multiply.MaxPoolMultiplyLayer object at 0x7f7cf6a940d0</title>
<path fill="none" stroke="black" d="M471.071,-228.859C471.328,-208.075 468.666,-174.054 451,-152 439.633,-137.81 423.845,-127.176 407.336,-119.244"/>
<polygon fill="black" stroke="black" points="408.67,-116.007 398.113,-115.111 405.807,-122.395 408.67,-116.007"/>
</g>
<!-- lasagne.layers.conv.Conv2DLayer object at 0x7f7cf6a9b850&#45;&gt;utils.maxpool_multiply.MaxPoolMultiplyLayer object at 0x7f7cf6a9be50 -->
<g id="edge11" class="edge"><title>lasagne.layers.conv.Conv2DLayer object at 0x7f7cf6a9b850&#45;&gt;utils.maxpool_multiply.MaxPoolMultiplyLayer object at 0x7f7cf6a9be50</title>
<path fill="none" stroke="black" d="M415.798,-304.708C424.691,-295.567 435.596,-284.36 445.286,-274.4"/>
<polygon fill="black" stroke="black" points="447.942,-276.69 452.407,-267.082 442.925,-271.808 447.942,-276.69"/>
</g>
<!-- lasagne.layers.input.InputLayer object at 0x7f7cf4203490 -->
<g id="node14" class="node"><title>lasagne.layers.input.InputLayer object at 0x7f7cf4203490</title>
<polygon fill="#b3f1a0" stroke="black" points="295,-609 295,-647 499,-647 499,-609 295,-609"/>
<text text-anchor="middle" x="397" y="-631.8" font-family="Times,serif" font-size="14.00">network input InputLayer</text>
<text text-anchor="middle" x="397" y="-616.8" font-family="Times,serif" font-size="14.00">Output shape: (None, 1, 200, 200)</text>
</g>
<!-- lasagne.layers.input.InputLayer object at 0x7f7cf4203490&#45;&gt;lasagne.layers.conv.Conv2DLayer object at 0x7f7cf4203510 -->
<g id="edge1" class="edge"><title>lasagne.layers.input.InputLayer object at 0x7f7cf4203490&#45;&gt;lasagne.layers.conv.Conv2DLayer object at 0x7f7cf4203510</title>
<path fill="none" stroke="black" d="M397,-608.708C397,-600.464 397,-590.538 397,-581.362"/>
<polygon fill="black" stroke="black" points="400.5,-581.082 397,-571.082 393.5,-581.082 400.5,-581.082"/>
</g>
</g>
</svg>
