<?xml version="1.0" encoding="UTF-8" standalone="no"?>
<!DOCTYPE svg PUBLIC "-//W3C//DTD SVG 1.1//EN"
 "http://www.w3.org/Graphics/SVG/1.1/DTD/svg11.dtd">
<!-- Generated by graphviz version 2.30.1 (20150306.0020)
 -->
<!-- Title: Network Pages: 1 -->
<svg width="212pt" height="580pt"
 viewBox="0.00 0.00 212.00 580.00" xmlns="http://www.w3.org/2000/svg" xmlns:xlink="http://www.w3.org/1999/xlink">
<g id="graph0" class="graph" transform="scale(1 1) rotate(0) translate(4 576)">
<title>Network</title>
<polygon fill="white" stroke="white" points="-4,5 -4,-576 209,-576 209,5 -4,5"/>
<!-- lasagne.layers.conv.Conv2DLayer object at 0x7f08d4d5ed50 -->
<g id="node1" class="node"><title>lasagne.layers.conv.Conv2DLayer object at 0x7f08d4d5ed50</title>
<polygon fill="#3173a2" stroke="black" points="6.5,-1 6.5,-39 197.5,-39 197.5,-1 6.5,-1"/>
<text text-anchor="middle" x="102" y="-23.8" font-family="Times,serif" font-size="14.00">prediction layer Conv2DLayer</text>
<text text-anchor="middle" x="102" y="-8.8" font-family="Times,serif" font-size="14.00">Output shape: (None, 1, 25, 25)</text>
</g>
<!-- lasagne.layers.pool.MaxPool2DLayer object at 0x7f08d4c99210 -->
<g id="node2" class="node"><title>lasagne.layers.pool.MaxPool2DLayer object at 0x7f08d4c99210</title>
<polygon fill="#fcac41" stroke="black" points="5,-77 5,-115 199,-115 199,-77 5,-77"/>
<text text-anchor="middle" x="102" y="-99.8" font-family="Times,serif" font-size="14.00">Max Pool 3 4 MaxPool2DLayer</text>
<text text-anchor="middle" x="102" y="-84.8" font-family="Times,serif" font-size="14.00">Output shape: (None, 3, 25, 25)</text>
</g>
<!-- lasagne.layers.pool.MaxPool2DLayer object at 0x7f08d4c99210&#45;&gt;lasagne.layers.conv.Conv2DLayer object at 0x7f08d4d5ed50 -->
<g id="edge7" class="edge"><title>lasagne.layers.pool.MaxPool2DLayer object at 0x7f08d4c99210&#45;&gt;lasagne.layers.conv.Conv2DLayer object at 0x7f08d4d5ed50</title>
<path fill="none" stroke="black" d="M102,-76.7079C102,-68.4635 102,-58.5376 102,-49.3622"/>
<polygon fill="black" stroke="black" points="105.5,-49.0817 102,-39.0817 98.5001,-49.0818 105.5,-49.0817"/>
</g>
<!-- lasagne.layers.input.InputLayer object at 0x7f08d4d5ed10 -->
<g id="node3" class="node"><title>lasagne.layers.input.InputLayer object at 0x7f08d4d5ed10</title>
<polygon fill="#b3f1a0" stroke="black" points="0,-533 0,-571 204,-571 204,-533 0,-533"/>
<text text-anchor="middle" x="102" y="-555.8" font-family="Times,serif" font-size="14.00">network input InputLayer</text>
<text text-anchor="middle" x="102" y="-540.8" font-family="Times,serif" font-size="14.00">Output shape: (None, 1, 200, 200)</text>
</g>
<!-- lasagne.layers.conv.Conv2DLayer object at 0x7f08d4d5ed90 -->
<g id="node4" class="node"><title>lasagne.layers.conv.Conv2DLayer object at 0x7f08d4d5ed90</title>
<polygon fill="#3173a2" stroke="black" points="0,-457 0,-495 204,-495 204,-457 0,-457"/>
<text text-anchor="middle" x="102" y="-479.8" font-family="Times,serif" font-size="14.00">conv 1 Conv2DLayer</text>
<text text-anchor="middle" x="102" y="-464.8" font-family="Times,serif" font-size="14.00">Output shape: (None, 1, 200, 200)</text>
</g>
<!-- lasagne.layers.input.InputLayer object at 0x7f08d4d5ed10&#45;&gt;lasagne.layers.conv.Conv2DLayer object at 0x7f08d4d5ed90 -->
<g id="edge1" class="edge"><title>lasagne.layers.input.InputLayer object at 0x7f08d4d5ed10&#45;&gt;lasagne.layers.conv.Conv2DLayer object at 0x7f08d4d5ed90</title>
<path fill="none" stroke="black" d="M102,-532.708C102,-524.464 102,-514.538 102,-505.362"/>
<polygon fill="black" stroke="black" points="105.5,-505.082 102,-495.082 98.5001,-505.082 105.5,-505.082"/>
</g>
<!-- lasagne.layers.pool.MaxPool2DLayer object at 0x7f08eb644050 -->
<g id="node8" class="node"><title>lasagne.layers.pool.MaxPool2DLayer object at 0x7f08eb644050</title>
<polygon fill="#fcac41" stroke="black" points="0,-381 0,-419 204,-419 204,-381 0,-381"/>
<text text-anchor="middle" x="102" y="-403.8" font-family="Times,serif" font-size="14.00">Max Pool 1 2 MaxPool2DLayer</text>
<text text-anchor="middle" x="102" y="-388.8" font-family="Times,serif" font-size="14.00">Output shape: (None, 1, 100, 100)</text>
</g>
<!-- lasagne.layers.conv.Conv2DLayer object at 0x7f08d4d5ed90&#45;&gt;lasagne.layers.pool.MaxPool2DLayer object at 0x7f08eb644050 -->
<g id="edge2" class="edge"><title>lasagne.layers.conv.Conv2DLayer object at 0x7f08d4d5ed90&#45;&gt;lasagne.layers.pool.MaxPool2DLayer object at 0x7f08eb644050</title>
<path fill="none" stroke="black" d="M102,-456.708C102,-448.464 102,-438.538 102,-429.362"/>
<polygon fill="black" stroke="black" points="105.5,-429.082 102,-419.082 98.5001,-429.082 105.5,-429.082"/>
</g>
<!-- lasagne.layers.conv.Conv2DLayer object at 0x7f08d4c991d0 -->
<g id="node5" class="node"><title>lasagne.layers.conv.Conv2DLayer object at 0x7f08d4c991d0</title>
<polygon fill="#3173a2" stroke="black" points="6.5,-153 6.5,-191 197.5,-191 197.5,-153 6.5,-153"/>
<text text-anchor="middle" x="102" y="-175.8" font-family="Times,serif" font-size="14.00">conv 3 Conv2DLayer</text>
<text text-anchor="middle" x="102" y="-160.8" font-family="Times,serif" font-size="14.00">Output shape: (None, 3, 50, 50)</text>
</g>
<!-- lasagne.layers.conv.Conv2DLayer object at 0x7f08d4c991d0&#45;&gt;lasagne.layers.pool.MaxPool2DLayer object at 0x7f08d4c99210 -->
<g id="edge6" class="edge"><title>lasagne.layers.conv.Conv2DLayer object at 0x7f08d4c991d0&#45;&gt;lasagne.layers.pool.MaxPool2DLayer object at 0x7f08d4c99210</title>
<path fill="none" stroke="black" d="M102,-152.708C102,-144.464 102,-134.538 102,-125.362"/>
<polygon fill="black" stroke="black" points="105.5,-125.082 102,-115.082 98.5001,-125.082 105.5,-125.082"/>
</g>
<!-- lasagne.layers.conv.Conv2DLayer object at 0x7f08ded11b10 -->
<g id="node6" class="node"><title>lasagne.layers.conv.Conv2DLayer object at 0x7f08ded11b10</title>
<polygon fill="#3173a2" stroke="black" points="0,-305 0,-343 204,-343 204,-305 0,-305"/>
<text text-anchor="middle" x="102" y="-327.8" font-family="Times,serif" font-size="14.00">conv 2 Conv2DLayer</text>
<text text-anchor="middle" x="102" y="-312.8" font-family="Times,serif" font-size="14.00">Output shape: (None, 1, 100, 100)</text>
</g>
<!-- lasagne.layers.pool.MaxPool2DLayer object at 0x7f08ded11a90 -->
<g id="node7" class="node"><title>lasagne.layers.pool.MaxPool2DLayer object at 0x7f08ded11a90</title>
<polygon fill="#fcac41" stroke="black" points="5,-229 5,-267 199,-267 199,-229 5,-229"/>
<text text-anchor="middle" x="102" y="-251.8" font-family="Times,serif" font-size="14.00">Max Pool 2 3 MaxPool2DLayer</text>
<text text-anchor="middle" x="102" y="-236.8" font-family="Times,serif" font-size="14.00">Output shape: (None, 1, 50, 50)</text>
</g>
<!-- lasagne.layers.conv.Conv2DLayer object at 0x7f08ded11b10&#45;&gt;lasagne.layers.pool.MaxPool2DLayer object at 0x7f08ded11a90 -->
<g id="edge4" class="edge"><title>lasagne.layers.conv.Conv2DLayer object at 0x7f08ded11b10&#45;&gt;lasagne.layers.pool.MaxPool2DLayer object at 0x7f08ded11a90</title>
<path fill="none" stroke="black" d="M102,-304.708C102,-296.464 102,-286.538 102,-277.362"/>
<polygon fill="black" stroke="black" points="105.5,-277.082 102,-267.082 98.5001,-277.082 105.5,-277.082"/>
</g>
<!-- lasagne.layers.pool.MaxPool2DLayer object at 0x7f08ded11a90&#45;&gt;lasagne.layers.conv.Conv2DLayer object at 0x7f08d4c991d0 -->
<g id="edge5" class="edge"><title>lasagne.layers.pool.MaxPool2DLayer object at 0x7f08ded11a90&#45;&gt;lasagne.layers.conv.Conv2DLayer object at 0x7f08d4c991d0</title>
<path fill="none" stroke="black" d="M102,-228.708C102,-220.464 102,-210.538 102,-201.362"/>
<polygon fill="black" stroke="black" points="105.5,-201.082 102,-191.082 98.5001,-201.082 105.5,-201.082"/>
</g>
<!-- lasagne.layers.pool.MaxPool2DLayer object at 0x7f08eb644050&#45;&gt;lasagne.layers.conv.Conv2DLayer object at 0x7f08ded11b10 -->
<g id="edge3" class="edge"><title>lasagne.layers.pool.MaxPool2DLayer object at 0x7f08eb644050&#45;&gt;lasagne.layers.conv.Conv2DLayer object at 0x7f08ded11b10</title>
<path fill="none" stroke="black" d="M102,-380.708C102,-372.464 102,-362.538 102,-353.362"/>
<polygon fill="black" stroke="black" points="105.5,-353.082 102,-343.082 98.5001,-353.082 105.5,-353.082"/>
</g>
</g>
</svg>
