<?xml version="1.0" encoding="UTF-8" standalone="no"?>
<!DOCTYPE svg PUBLIC "-//W3C//DTD SVG 1.1//EN"
 "http://www.w3.org/Graphics/SVG/1.1/DTD/svg11.dtd">
<!-- Generated by graphviz version 2.30.1 (20150306.0020)
 -->
<!-- Title: Network Pages: 1 -->
<svg width="590pt" height="884pt"
 viewBox="0.00 0.00 590.00 884.00" xmlns="http://www.w3.org/2000/svg" xmlns:xlink="http://www.w3.org/1999/xlink">
<g id="graph0" class="graph" transform="scale(1 1) rotate(0) translate(4 880)">
<title>Network</title>
<polygon fill="white" stroke="white" points="-4,5 -4,-880 587,-880 587,5 -4,5"/>
<!-- lasagne.layers.pool.MaxPool2DLayer object at 0x7f8274011e50 -->
<g id="node1" class="node"><title>lasagne.layers.pool.MaxPool2DLayer object at 0x7f8274011e50</title>
<polygon fill="#fcac41" stroke="black" points="228,-457 228,-495 422,-495 422,-457 228,-457"/>
<text text-anchor="middle" x="325" y="-479.8" font-family="Times,serif" font-size="14.00">Max Pool 2 3 MaxPool2DLayer</text>
<text text-anchor="middle" x="325" y="-464.8" font-family="Times,serif" font-size="14.00">Output shape: (None, 1, 64, 64)</text>
</g>
<!-- lasagne.layers.conv.Conv2DLayer object at 0x7f82740141d0 -->
<g id="node14" class="node"><title>lasagne.layers.conv.Conv2DLayer object at 0x7f82740141d0</title>
<polygon fill="#3173a2" stroke="black" points="167.5,-381 167.5,-419 358.5,-419 358.5,-381 167.5,-381"/>
<text text-anchor="middle" x="263" y="-403.8" font-family="Times,serif" font-size="14.00">conv 3 Conv2DLayer</text>
<text text-anchor="middle" x="263" y="-388.8" font-family="Times,serif" font-size="14.00">Output shape: (None, 3, 64, 64)</text>
</g>
<!-- lasagne.layers.pool.MaxPool2DLayer object at 0x7f8274011e50&#45;&gt;lasagne.layers.conv.Conv2DLayer object at 0x7f82740141d0 -->
<g id="edge6" class="edge"><title>lasagne.layers.pool.MaxPool2DLayer object at 0x7f8274011e50&#45;&gt;lasagne.layers.conv.Conv2DLayer object at 0x7f82740141d0</title>
<path fill="none" stroke="black" d="M309.674,-456.708C302.166,-447.747 292.993,-436.799 284.773,-426.987"/>
<polygon fill="black" stroke="black" points="287.255,-424.499 278.15,-419.082 281.889,-428.995 287.255,-424.499"/>
</g>
<!-- lasagne.layers.conv.Conv2DLayer object at 0x7f827401b110 -->
<g id="node4" class="node"><title>lasagne.layers.conv.Conv2DLayer object at 0x7f827401b110</title>
<polygon fill="#3173a2" stroke="black" points="352,-305 352,-343 582,-343 582,-305 352,-305"/>
<text text-anchor="middle" x="467" y="-327.8" font-family="Times,serif" font-size="14.00">decide network 2 output Conv2DLayer</text>
<text text-anchor="middle" x="467" y="-312.8" font-family="Times,serif" font-size="14.00">Output shape: (None, 1, 64, 64)</text>
</g>
<!-- lasagne.layers.pool.MaxPool2DLayer object at 0x7f8274011e50&#45;&gt;lasagne.layers.conv.Conv2DLayer object at 0x7f827401b110 -->
<g id="edge12" class="edge"><title>lasagne.layers.pool.MaxPool2DLayer object at 0x7f8274011e50&#45;&gt;lasagne.layers.conv.Conv2DLayer object at 0x7f827401b110</title>
<path fill="none" stroke="black" d="M342.129,-456.906C367.183,-430.441 413.948,-381.041 442.594,-350.781"/>
<polygon fill="black" stroke="black" points="445.478,-352.826 449.811,-343.158 440.394,-348.014 445.478,-352.826"/>
</g>
<!-- lasagne.layers.conv.Conv2DLayer object at 0x7f8274014550 -->
<g id="node2" class="node"><title>lasagne.layers.conv.Conv2DLayer object at 0x7f8274014550</title>
<polygon fill="#3173a2" stroke="black" points="-0.5,-229 -0.5,-267 190.5,-267 190.5,-229 -0.5,-229"/>
<text text-anchor="middle" x="95" y="-251.8" font-family="Times,serif" font-size="14.00">conv 4 Conv2DLayer</text>
<text text-anchor="middle" x="95" y="-236.8" font-family="Times,serif" font-size="14.00">Output shape: (None, 6, 32, 32)</text>
</g>
<!-- lasagne.layers.pool.MaxPool2DLayer object at 0x7f8274014590 -->
<g id="node9" class="node"><title>lasagne.layers.pool.MaxPool2DLayer object at 0x7f8274014590</title>
<polygon fill="#fcac41" stroke="black" points="7,-153 7,-191 201,-191 201,-153 7,-153"/>
<text text-anchor="middle" x="104" y="-175.8" font-family="Times,serif" font-size="14.00">Max Pool 4 5 MaxPool2DLayer</text>
<text text-anchor="middle" x="104" y="-160.8" font-family="Times,serif" font-size="14.00">Output shape: (None, 6, 16, 16)</text>
</g>
<!-- lasagne.layers.conv.Conv2DLayer object at 0x7f8274014550&#45;&gt;lasagne.layers.pool.MaxPool2DLayer object at 0x7f8274014590 -->
<g id="edge9" class="edge"><title>lasagne.layers.conv.Conv2DLayer object at 0x7f8274014550&#45;&gt;lasagne.layers.pool.MaxPool2DLayer object at 0x7f8274014590</title>
<path fill="none" stroke="black" d="M97.2247,-228.708C98.2383,-220.374 99.4609,-210.322 100.587,-201.063"/>
<polygon fill="black" stroke="black" points="104.068,-201.431 101.801,-191.082 97.1191,-200.586 104.068,-201.431"/>
</g>
<!-- lasagne.layers.conv.Conv2DLayer object at 0x7f827401b510 -->
<g id="node3" class="node"><title>lasagne.layers.conv.Conv2DLayer object at 0x7f827401b510</title>
<polygon fill="#3173a2" stroke="black" points="209,-229 209,-267 439,-267 439,-229 209,-229"/>
<text text-anchor="middle" x="324" y="-251.8" font-family="Times,serif" font-size="14.00">decide network 3 output Conv2DLayer</text>
<text text-anchor="middle" x="324" y="-236.8" font-family="Times,serif" font-size="14.00">Output shape: (None, 1, 32, 32)</text>
</g>
<!-- utils.maxpool_multiply.MaxPoolMultiplyLayer object at 0x7f827401b950 -->
<g id="node5" class="node"><title>utils.maxpool_multiply.MaxPoolMultiplyLayer object at 0x7f827401b950</title>
<polygon fill="#91e875" stroke="black" points="228.5,-153 228.5,-191 419.5,-191 419.5,-153 228.5,-153"/>
<text text-anchor="middle" x="324" y="-175.8" font-family="Times,serif" font-size="14.00">MaxPoolMultiplyLayer</text>
<text text-anchor="middle" x="324" y="-160.8" font-family="Times,serif" font-size="14.00">Output shape: (None, 1, 32, 32)</text>
</g>
<!-- lasagne.layers.conv.Conv2DLayer object at 0x7f827401b510&#45;&gt;utils.maxpool_multiply.MaxPoolMultiplyLayer object at 0x7f827401b950 -->
<g id="edge13" class="edge"><title>lasagne.layers.conv.Conv2DLayer object at 0x7f827401b510&#45;&gt;utils.maxpool_multiply.MaxPoolMultiplyLayer object at 0x7f827401b950</title>
<path fill="none" stroke="black" d="M324,-228.708C324,-220.464 324,-210.538 324,-201.362"/>
<polygon fill="black" stroke="black" points="327.5,-201.082 324,-191.082 320.5,-201.082 327.5,-201.082"/>
</g>
<!-- lasagne.layers.conv.Conv2DLayer object at 0x7f827401b110&#45;&gt;utils.maxpool_multiply.MaxPoolMultiplyLayer object at 0x7f827401b950 -->
<g id="edge14" class="edge"><title>lasagne.layers.conv.Conv2DLayer object at 0x7f827401b110&#45;&gt;utils.maxpool_multiply.MaxPoolMultiplyLayer object at 0x7f827401b950</title>
<path fill="none" stroke="black" d="M468.071,-304.859C468.328,-284.075 465.666,-250.054 448,-228 436.633,-213.81 420.845,-203.176 404.336,-195.244"/>
<polygon fill="black" stroke="black" points="405.67,-192.007 395.113,-191.111 402.807,-198.395 405.67,-192.007"/>
</g>
<!-- utils.maxpool_multiply.MaxPoolMultiplyLayer object at 0x7f82740148d0 -->
<g id="node7" class="node"><title>utils.maxpool_multiply.MaxPoolMultiplyLayer object at 0x7f82740148d0</title>
<polygon fill="#91e875" stroke="black" points="130.5,-1 130.5,-39 321.5,-39 321.5,-1 130.5,-1"/>
<text text-anchor="middle" x="226" y="-23.8" font-family="Times,serif" font-size="14.00">MaxPoolMultiplyLayer</text>
<text text-anchor="middle" x="226" y="-8.8" font-family="Times,serif" font-size="14.00">Output shape: (None, 1, 16, 16)</text>
</g>
<!-- utils.maxpool_multiply.MaxPoolMultiplyLayer object at 0x7f827401b950&#45;&gt;utils.maxpool_multiply.MaxPoolMultiplyLayer object at 0x7f82740148d0 -->
<g id="edge16" class="edge"><title>utils.maxpool_multiply.MaxPoolMultiplyLayer object at 0x7f827401b950&#45;&gt;utils.maxpool_multiply.MaxPoolMultiplyLayer object at 0x7f82740148d0</title>
<path fill="none" stroke="black" d="M312.179,-152.906C295.035,-126.666 263.162,-77.88 243.351,-47.558"/>
<polygon fill="black" stroke="black" points="246.263,-45.615 237.863,-39.1577 240.402,-49.4437 246.263,-45.615"/>
</g>
<!-- lasagne.layers.pool.MaxPool2DLayer object at 0x7f8274014210 -->
<g id="node6" class="node"><title>lasagne.layers.pool.MaxPool2DLayer object at 0x7f8274014210</title>
<polygon fill="#fcac41" stroke="black" points="140,-305 140,-343 334,-343 334,-305 140,-305"/>
<text text-anchor="middle" x="237" y="-327.8" font-family="Times,serif" font-size="14.00">Max Pool 3 4 MaxPool2DLayer</text>
<text text-anchor="middle" x="237" y="-312.8" font-family="Times,serif" font-size="14.00">Output shape: (None, 3, 32, 32)</text>
</g>
<!-- lasagne.layers.pool.MaxPool2DLayer object at 0x7f8274014210&#45;&gt;lasagne.layers.conv.Conv2DLayer object at 0x7f8274014550 -->
<g id="edge8" class="edge"><title>lasagne.layers.pool.MaxPool2DLayer object at 0x7f8274014210&#45;&gt;lasagne.layers.conv.Conv2DLayer object at 0x7f8274014550</title>
<path fill="none" stroke="black" d="M202.263,-304.898C183.181,-294.953 159.321,-282.52 138.953,-271.905"/>
<polygon fill="black" stroke="black" points="140.356,-268.69 129.871,-267.172 137.121,-274.897 140.356,-268.69"/>
</g>
<!-- lasagne.layers.pool.MaxPool2DLayer object at 0x7f8274014210&#45;&gt;lasagne.layers.conv.Conv2DLayer object at 0x7f827401b510 -->
<g id="edge11" class="edge"><title>lasagne.layers.pool.MaxPool2DLayer object at 0x7f8274014210&#45;&gt;lasagne.layers.conv.Conv2DLayer object at 0x7f827401b510</title>
<path fill="none" stroke="black" d="M258.506,-304.708C269.463,-295.388 282.946,-283.92 294.825,-273.816"/>
<polygon fill="black" stroke="black" points="297.392,-276.227 302.742,-267.082 292.857,-270.895 297.392,-276.227"/>
</g>
<!-- lasagne.layers.input.InputLayer object at 0x7f8274011950 -->
<g id="node8" class="node"><title>lasagne.layers.input.InputLayer object at 0x7f8274011950</title>
<polygon fill="#b3f1a0" stroke="black" points="223,-837 223,-875 427,-875 427,-837 223,-837"/>
<text text-anchor="middle" x="325" y="-859.8" font-family="Times,serif" font-size="14.00">network input InputLayer</text>
<text text-anchor="middle" x="325" y="-844.8" font-family="Times,serif" font-size="14.00">Output shape: (None, 1, 512, 512)</text>
</g>
<!-- lasagne.layers.pool.MaxPool2DLayer object at 0x7f8274011990 -->
<g id="node11" class="node"><title>lasagne.layers.pool.MaxPool2DLayer object at 0x7f8274011990</title>
<polygon fill="#fcac41" stroke="black" points="223,-761 223,-799 427,-799 427,-761 223,-761"/>
<text text-anchor="middle" x="325" y="-783.8" font-family="Times,serif" font-size="14.00">MaxPool2DLayer</text>
<text text-anchor="middle" x="325" y="-768.8" font-family="Times,serif" font-size="14.00">Output shape: (None, 1, 256, 256)</text>
</g>
<!-- lasagne.layers.input.InputLayer object at 0x7f8274011950&#45;&gt;lasagne.layers.pool.MaxPool2DLayer object at 0x7f8274011990 -->
<g id="edge1" class="edge"><title>lasagne.layers.input.InputLayer object at 0x7f8274011950&#45;&gt;lasagne.layers.pool.MaxPool2DLayer object at 0x7f8274011990</title>
<path fill="none" stroke="black" d="M325,-836.708C325,-828.464 325,-818.538 325,-809.362"/>
<polygon fill="black" stroke="black" points="328.5,-809.082 325,-799.082 321.5,-809.082 328.5,-809.082"/>
</g>
<!-- lasagne.layers.conv.Conv2DLayer object at 0x7f82740119d0 -->
<g id="node15" class="node"><title>lasagne.layers.conv.Conv2DLayer object at 0x7f82740119d0</title>
<polygon fill="#3173a2" stroke="black" points="56.5,-77 56.5,-115 247.5,-115 247.5,-77 56.5,-77"/>
<text text-anchor="middle" x="152" y="-99.8" font-family="Times,serif" font-size="14.00">prediction layer Conv2DLayer</text>
<text text-anchor="middle" x="152" y="-84.8" font-family="Times,serif" font-size="14.00">Output shape: (None, 1, 16, 16)</text>
</g>
<!-- lasagne.layers.pool.MaxPool2DLayer object at 0x7f8274014590&#45;&gt;lasagne.layers.conv.Conv2DLayer object at 0x7f82740119d0 -->
<g id="edge10" class="edge"><title>lasagne.layers.pool.MaxPool2DLayer object at 0x7f8274014590&#45;&gt;lasagne.layers.conv.Conv2DLayer object at 0x7f82740119d0</title>
<path fill="none" stroke="black" d="M115.865,-152.708C121.562,-143.926 128.496,-133.236 134.761,-123.577"/>
<polygon fill="black" stroke="black" points="137.766,-125.376 140.271,-115.082 131.893,-121.567 137.766,-125.376"/>
</g>
<!-- lasagne.layers.conv.Conv2DLayer object at 0x7f8274011e10 -->
<g id="node10" class="node"><title>lasagne.layers.conv.Conv2DLayer object at 0x7f8274011e10</title>
<polygon fill="#3173a2" stroke="black" points="223,-533 223,-571 427,-571 427,-533 223,-533"/>
<text text-anchor="middle" x="325" y="-555.8" font-family="Times,serif" font-size="14.00">conv 2 Conv2DLayer</text>
<text text-anchor="middle" x="325" y="-540.8" font-family="Times,serif" font-size="14.00">Output shape: (None, 1, 128, 128)</text>
</g>
<!-- lasagne.layers.conv.Conv2DLayer object at 0x7f8274011e10&#45;&gt;lasagne.layers.pool.MaxPool2DLayer object at 0x7f8274011e50 -->
<g id="edge5" class="edge"><title>lasagne.layers.conv.Conv2DLayer object at 0x7f8274011e10&#45;&gt;lasagne.layers.pool.MaxPool2DLayer object at 0x7f8274011e50</title>
<path fill="none" stroke="black" d="M325,-532.708C325,-524.464 325,-514.538 325,-505.362"/>
<polygon fill="black" stroke="black" points="328.5,-505.082 325,-495.082 321.5,-505.082 328.5,-505.082"/>
</g>
<!-- lasagne.layers.conv.Conv2DLayer object at 0x7f8274011a10 -->
<g id="node12" class="node"><title>lasagne.layers.conv.Conv2DLayer object at 0x7f8274011a10</title>
<polygon fill="#3173a2" stroke="black" points="223,-685 223,-723 427,-723 427,-685 223,-685"/>
<text text-anchor="middle" x="325" y="-707.8" font-family="Times,serif" font-size="14.00">conv 1 Conv2DLayer</text>
<text text-anchor="middle" x="325" y="-692.8" font-family="Times,serif" font-size="14.00">Output shape: (None, 1, 256, 256)</text>
</g>
<!-- lasagne.layers.pool.MaxPool2DLayer object at 0x7f8274011990&#45;&gt;lasagne.layers.conv.Conv2DLayer object at 0x7f8274011a10 -->
<g id="edge2" class="edge"><title>lasagne.layers.pool.MaxPool2DLayer object at 0x7f8274011990&#45;&gt;lasagne.layers.conv.Conv2DLayer object at 0x7f8274011a10</title>
<path fill="none" stroke="black" d="M325,-760.708C325,-752.464 325,-742.538 325,-733.362"/>
<polygon fill="black" stroke="black" points="328.5,-733.082 325,-723.082 321.5,-733.082 328.5,-733.082"/>
</g>
<!-- lasagne.layers.pool.MaxPool2DLayer object at 0x7f8274011a50 -->
<g id="node13" class="node"><title>lasagne.layers.pool.MaxPool2DLayer object at 0x7f8274011a50</title>
<polygon fill="#fcac41" stroke="black" points="223,-609 223,-647 427,-647 427,-609 223,-609"/>
<text text-anchor="middle" x="325" y="-631.8" font-family="Times,serif" font-size="14.00">Max Pool 1 2 MaxPool2DLayer</text>
<text text-anchor="middle" x="325" y="-616.8" font-family="Times,serif" font-size="14.00">Output shape: (None, 1, 128, 128)</text>
</g>
<!-- lasagne.layers.conv.Conv2DLayer object at 0x7f8274011a10&#45;&gt;lasagne.layers.pool.MaxPool2DLayer object at 0x7f8274011a50 -->
<g id="edge3" class="edge"><title>lasagne.layers.conv.Conv2DLayer object at 0x7f8274011a10&#45;&gt;lasagne.layers.pool.MaxPool2DLayer object at 0x7f8274011a50</title>
<path fill="none" stroke="black" d="M325,-684.708C325,-676.464 325,-666.538 325,-657.362"/>
<polygon fill="black" stroke="black" points="328.5,-657.082 325,-647.082 321.5,-657.082 328.5,-657.082"/>
</g>
<!-- lasagne.layers.pool.MaxPool2DLayer object at 0x7f8274011a50&#45;&gt;lasagne.layers.conv.Conv2DLayer object at 0x7f8274011e10 -->
<g id="edge4" class="edge"><title>lasagne.layers.pool.MaxPool2DLayer object at 0x7f8274011a50&#45;&gt;lasagne.layers.conv.Conv2DLayer object at 0x7f8274011e10</title>
<path fill="none" stroke="black" d="M325,-608.708C325,-600.464 325,-590.538 325,-581.362"/>
<polygon fill="black" stroke="black" points="328.5,-581.082 325,-571.082 321.5,-581.082 328.5,-581.082"/>
</g>
<!-- lasagne.layers.conv.Conv2DLayer object at 0x7f82740141d0&#45;&gt;lasagne.layers.pool.MaxPool2DLayer object at 0x7f8274014210 -->
<g id="edge7" class="edge"><title>lasagne.layers.conv.Conv2DLayer object at 0x7f82740141d0&#45;&gt;lasagne.layers.pool.MaxPool2DLayer object at 0x7f8274014210</title>
<path fill="none" stroke="black" d="M256.573,-380.708C253.613,-372.284 250.037,-362.105 246.755,-352.765"/>
<polygon fill="black" stroke="black" points="249.97,-351.356 243.353,-343.082 243.366,-353.677 249.97,-351.356"/>
</g>
<!-- lasagne.layers.conv.Conv2DLayer object at 0x7f82740119d0&#45;&gt;utils.maxpool_multiply.MaxPoolMultiplyLayer object at 0x7f82740148d0 -->
<g id="edge15" class="edge"><title>lasagne.layers.conv.Conv2DLayer object at 0x7f82740119d0&#45;&gt;utils.maxpool_multiply.MaxPoolMultiplyLayer object at 0x7f82740148d0</title>
<path fill="none" stroke="black" d="M170.292,-76.7079C179.433,-67.5674 190.64,-56.3599 200.6,-46.4"/>
<polygon fill="black" stroke="black" points="203.322,-48.6277 207.918,-39.0817 198.372,-43.6779 203.322,-48.6277"/>
</g>
</g>
</svg>
