<?xml version="1.0" encoding="UTF-8" standalone="no"?>
<!DOCTYPE svg PUBLIC "-//W3C//DTD SVG 1.1//EN"
 "http://www.w3.org/Graphics/SVG/1.1/DTD/svg11.dtd">
<!-- Generated by graphviz version 2.30.1 (20150306.0020)
 -->
<!-- Title: Network Pages: 1 -->
<svg width="590pt" height="656pt"
 viewBox="0.00 0.00 590.00 656.00" xmlns="http://www.w3.org/2000/svg" xmlns:xlink="http://www.w3.org/1999/xlink">
<g id="graph0" class="graph" transform="scale(1 1) rotate(0) translate(4 652)">
<title>Network</title>
<polygon fill="white" stroke="white" points="-4,5 -4,-652 587,-652 587,5 -4,5"/>
<!-- lasagne.layers.pool.MaxPool2DLayer object at 0x7ef9645d00d0 -->
<g id="node1" class="node"><title>lasagne.layers.pool.MaxPool2DLayer object at 0x7ef9645d00d0</title>
<polygon fill="#fcac41" stroke="black" points="7,-153 7,-191 201,-191 201,-153 7,-153"/>
<text text-anchor="middle" x="104" y="-175.8" font-family="Times,serif" font-size="14.00">Max Pool 3 4 MaxPool2DLayer</text>
<text text-anchor="middle" x="104" y="-160.8" font-family="Times,serif" font-size="14.00">Output shape: (None, 3, 25, 25)</text>
</g>
<!-- lasagne.layers.conv.Conv2DLayer object at 0x7ef964243910 -->
<g id="node7" class="node"><title>lasagne.layers.conv.Conv2DLayer object at 0x7ef964243910</title>
<polygon fill="#3173a2" stroke="black" points="56.5,-77 56.5,-115 247.5,-115 247.5,-77 56.5,-77"/>
<text text-anchor="middle" x="152" y="-99.8" font-family="Times,serif" font-size="14.00">prediction layer Conv2DLayer</text>
<text text-anchor="middle" x="152" y="-84.8" font-family="Times,serif" font-size="14.00">Output shape: (None, 1, 25, 25)</text>
</g>
<!-- lasagne.layers.pool.MaxPool2DLayer object at 0x7ef9645d00d0&#45;&gt;lasagne.layers.conv.Conv2DLayer object at 0x7ef964243910 -->
<g id="edge7" class="edge"><title>lasagne.layers.pool.MaxPool2DLayer object at 0x7ef9645d00d0&#45;&gt;lasagne.layers.conv.Conv2DLayer object at 0x7ef964243910</title>
<path fill="none" stroke="black" d="M115.865,-152.708C121.562,-143.926 128.496,-133.236 134.761,-123.577"/>
<polygon fill="black" stroke="black" points="137.766,-125.376 140.271,-115.082 131.893,-121.567 137.766,-125.376"/>
</g>
<!-- lasagne.layers.conv.Conv2DLayer object at 0x7ef9645d0750 -->
<g id="node2" class="node"><title>lasagne.layers.conv.Conv2DLayer object at 0x7ef9645d0750</title>
<polygon fill="#3173a2" stroke="black" points="352,-305 352,-343 582,-343 582,-305 352,-305"/>
<text text-anchor="middle" x="467" y="-327.8" font-family="Times,serif" font-size="14.00">decide network 1 output Conv2DLayer</text>
<text text-anchor="middle" x="467" y="-312.8" font-family="Times,serif" font-size="14.00">Output shape: (None, 1, 100, 100)</text>
</g>
<!-- utils.maxpool_multiply.MaxPoolMultiplyLayer object at 0x7ef9645d0990 -->
<g id="node9" class="node"><title>utils.maxpool_multiply.MaxPoolMultiplyLayer object at 0x7ef9645d0990</title>
<polygon fill="#91e875" stroke="black" points="228.5,-153 228.5,-191 419.5,-191 419.5,-153 228.5,-153"/>
<text text-anchor="middle" x="324" y="-175.8" font-family="Times,serif" font-size="14.00">MaxPoolMultiplyLayer</text>
<text text-anchor="middle" x="324" y="-160.8" font-family="Times,serif" font-size="14.00">Output shape: (None, 1, 50, 50)</text>
</g>
<!-- lasagne.layers.conv.Conv2DLayer object at 0x7ef9645d0750&#45;&gt;utils.maxpool_multiply.MaxPoolMultiplyLayer object at 0x7ef9645d0990 -->
<g id="edge11" class="edge"><title>lasagne.layers.conv.Conv2DLayer object at 0x7ef9645d0750&#45;&gt;utils.maxpool_multiply.MaxPoolMultiplyLayer object at 0x7ef9645d0990</title>
<path fill="none" stroke="black" d="M468.071,-304.859C468.328,-284.075 465.666,-250.054 448,-228 436.633,-213.81 420.845,-203.176 404.336,-195.244"/>
<polygon fill="black" stroke="black" points="405.67,-192.007 395.113,-191.111 402.807,-198.395 405.67,-192.007"/>
</g>
<!-- lasagne.layers.input.InputLayer object at 0x7efb610e4ad0 -->
<g id="node3" class="node"><title>lasagne.layers.input.InputLayer object at 0x7efb610e4ad0</title>
<polygon fill="#b3f1a0" stroke="black" points="225,-609 225,-647 429,-647 429,-609 225,-609"/>
<text text-anchor="middle" x="327" y="-631.8" font-family="Times,serif" font-size="14.00">network input InputLayer</text>
<text text-anchor="middle" x="327" y="-616.8" font-family="Times,serif" font-size="14.00">Output shape: (None, 1, 200, 200)</text>
</g>
<!-- lasagne.layers.conv.Conv2DLayer object at 0x7ef964243d90 -->
<g id="node12" class="node"><title>lasagne.layers.conv.Conv2DLayer object at 0x7ef964243d90</title>
<polygon fill="#3173a2" stroke="black" points="225,-533 225,-571 429,-571 429,-533 225,-533"/>
<text text-anchor="middle" x="327" y="-555.8" font-family="Times,serif" font-size="14.00">conv 1 Conv2DLayer</text>
<text text-anchor="middle" x="327" y="-540.8" font-family="Times,serif" font-size="14.00">Output shape: (None, 1, 200, 200)</text>
</g>
<!-- lasagne.layers.input.InputLayer object at 0x7efb610e4ad0&#45;&gt;lasagne.layers.conv.Conv2DLayer object at 0x7ef964243d90 -->
<g id="edge1" class="edge"><title>lasagne.layers.input.InputLayer object at 0x7efb610e4ad0&#45;&gt;lasagne.layers.conv.Conv2DLayer object at 0x7ef964243d90</title>
<path fill="none" stroke="black" d="M327,-608.708C327,-600.464 327,-590.538 327,-581.362"/>
<polygon fill="black" stroke="black" points="330.5,-581.082 327,-571.082 323.5,-581.082 330.5,-581.082"/>
</g>
<!-- lasagne.layers.conv.Conv2DLayer object at 0x7efb39033950 -->
<g id="node4" class="node"><title>lasagne.layers.conv.Conv2DLayer object at 0x7efb39033950</title>
<polygon fill="#3173a2" stroke="black" points="160,-381 160,-419 364,-419 364,-381 160,-381"/>
<text text-anchor="middle" x="262" y="-403.8" font-family="Times,serif" font-size="14.00">conv 2 Conv2DLayer</text>
<text text-anchor="middle" x="262" y="-388.8" font-family="Times,serif" font-size="14.00">Output shape: (None, 1, 100, 100)</text>
</g>
<!-- lasagne.layers.pool.MaxPool2DLayer object at 0x7efb65970110 -->
<g id="node10" class="node"><title>lasagne.layers.pool.MaxPool2DLayer object at 0x7efb65970110</title>
<polygon fill="#fcac41" stroke="black" points="140,-305 140,-343 334,-343 334,-305 140,-305"/>
<text text-anchor="middle" x="237" y="-327.8" font-family="Times,serif" font-size="14.00">Max Pool 2 3 MaxPool2DLayer</text>
<text text-anchor="middle" x="237" y="-312.8" font-family="Times,serif" font-size="14.00">Output shape: (None, 1, 50, 50)</text>
</g>
<!-- lasagne.layers.conv.Conv2DLayer object at 0x7efb39033950&#45;&gt;lasagne.layers.pool.MaxPool2DLayer object at 0x7efb65970110 -->
<g id="edge4" class="edge"><title>lasagne.layers.conv.Conv2DLayer object at 0x7efb39033950&#45;&gt;lasagne.layers.pool.MaxPool2DLayer object at 0x7efb65970110</title>
<path fill="none" stroke="black" d="M255.82,-380.708C252.974,-372.284 249.536,-362.105 246.38,-352.765"/>
<polygon fill="black" stroke="black" points="249.625,-351.435 243.109,-343.082 242.994,-353.676 249.625,-351.435"/>
</g>
<!-- lasagne.layers.conv.Conv2DLayer object at 0x7ef9645d0c50 -->
<g id="node5" class="node"><title>lasagne.layers.conv.Conv2DLayer object at 0x7ef9645d0c50</title>
<polygon fill="#3173a2" stroke="black" points="-0.5,-229 -0.5,-267 190.5,-267 190.5,-229 -0.5,-229"/>
<text text-anchor="middle" x="95" y="-251.8" font-family="Times,serif" font-size="14.00">conv 3 Conv2DLayer</text>
<text text-anchor="middle" x="95" y="-236.8" font-family="Times,serif" font-size="14.00">Output shape: (None, 3, 50, 50)</text>
</g>
<!-- lasagne.layers.conv.Conv2DLayer object at 0x7ef9645d0c50&#45;&gt;lasagne.layers.pool.MaxPool2DLayer object at 0x7ef9645d00d0 -->
<g id="edge6" class="edge"><title>lasagne.layers.conv.Conv2DLayer object at 0x7ef9645d0c50&#45;&gt;lasagne.layers.pool.MaxPool2DLayer object at 0x7ef9645d00d0</title>
<path fill="none" stroke="black" d="M97.2247,-228.708C98.2383,-220.374 99.4609,-210.322 100.587,-201.063"/>
<polygon fill="black" stroke="black" points="104.068,-201.431 101.801,-191.082 97.1191,-200.586 104.068,-201.431"/>
</g>
<!-- utils.maxpool_multiply.MaxPoolMultiplyLayer object at 0x7ef9645d0b10 -->
<g id="node6" class="node"><title>utils.maxpool_multiply.MaxPoolMultiplyLayer object at 0x7ef9645d0b10</title>
<polygon fill="#91e875" stroke="black" points="130.5,-1 130.5,-39 321.5,-39 321.5,-1 130.5,-1"/>
<text text-anchor="middle" x="226" y="-23.8" font-family="Times,serif" font-size="14.00">MaxPoolMultiplyLayer</text>
<text text-anchor="middle" x="226" y="-8.8" font-family="Times,serif" font-size="14.00">Output shape: (None, 1, 25, 25)</text>
</g>
<!-- lasagne.layers.conv.Conv2DLayer object at 0x7ef964243910&#45;&gt;utils.maxpool_multiply.MaxPoolMultiplyLayer object at 0x7ef9645d0b10 -->
<g id="edge12" class="edge"><title>lasagne.layers.conv.Conv2DLayer object at 0x7ef964243910&#45;&gt;utils.maxpool_multiply.MaxPoolMultiplyLayer object at 0x7ef9645d0b10</title>
<path fill="none" stroke="black" d="M170.292,-76.7079C179.433,-67.5674 190.64,-56.3599 200.6,-46.4"/>
<polygon fill="black" stroke="black" points="203.322,-48.6277 207.918,-39.0817 198.372,-43.6779 203.322,-48.6277"/>
</g>
<!-- lasagne.layers.conv.Conv2DLayer object at 0x7ef9645d0350 -->
<g id="node8" class="node"><title>lasagne.layers.conv.Conv2DLayer object at 0x7ef9645d0350</title>
<polygon fill="#3173a2" stroke="black" points="209,-229 209,-267 439,-267 439,-229 209,-229"/>
<text text-anchor="middle" x="324" y="-251.8" font-family="Times,serif" font-size="14.00">decide network 2 output Conv2DLayer</text>
<text text-anchor="middle" x="324" y="-236.8" font-family="Times,serif" font-size="14.00">Output shape: (None, 1, 50, 50)</text>
</g>
<!-- lasagne.layers.conv.Conv2DLayer object at 0x7ef9645d0350&#45;&gt;utils.maxpool_multiply.MaxPoolMultiplyLayer object at 0x7ef9645d0990 -->
<g id="edge10" class="edge"><title>lasagne.layers.conv.Conv2DLayer object at 0x7ef9645d0350&#45;&gt;utils.maxpool_multiply.MaxPoolMultiplyLayer object at 0x7ef9645d0990</title>
<path fill="none" stroke="black" d="M324,-228.708C324,-220.464 324,-210.538 324,-201.362"/>
<polygon fill="black" stroke="black" points="327.5,-201.082 324,-191.082 320.5,-201.082 327.5,-201.082"/>
</g>
<!-- utils.maxpool_multiply.MaxPoolMultiplyLayer object at 0x7ef9645d0990&#45;&gt;utils.maxpool_multiply.MaxPoolMultiplyLayer object at 0x7ef9645d0b10 -->
<g id="edge13" class="edge"><title>utils.maxpool_multiply.MaxPoolMultiplyLayer object at 0x7ef9645d0990&#45;&gt;utils.maxpool_multiply.MaxPoolMultiplyLayer object at 0x7ef9645d0b10</title>
<path fill="none" stroke="black" d="M312.179,-152.906C295.035,-126.666 263.162,-77.88 243.351,-47.558"/>
<polygon fill="black" stroke="black" points="246.263,-45.615 237.863,-39.1577 240.402,-49.4437 246.263,-45.615"/>
</g>
<!-- lasagne.layers.pool.MaxPool2DLayer object at 0x7efb65970110&#45;&gt;lasagne.layers.conv.Conv2DLayer object at 0x7ef9645d0c50 -->
<g id="edge5" class="edge"><title>lasagne.layers.pool.MaxPool2DLayer object at 0x7efb65970110&#45;&gt;lasagne.layers.conv.Conv2DLayer object at 0x7ef9645d0c50</title>
<path fill="none" stroke="black" d="M202.263,-304.898C183.181,-294.953 159.321,-282.52 138.953,-271.905"/>
<polygon fill="black" stroke="black" points="140.356,-268.69 129.871,-267.172 137.121,-274.897 140.356,-268.69"/>
</g>
<!-- lasagne.layers.pool.MaxPool2DLayer object at 0x7efb65970110&#45;&gt;lasagne.layers.conv.Conv2DLayer object at 0x7ef9645d0350 -->
<g id="edge8" class="edge"><title>lasagne.layers.pool.MaxPool2DLayer object at 0x7efb65970110&#45;&gt;lasagne.layers.conv.Conv2DLayer object at 0x7ef9645d0350</title>
<path fill="none" stroke="black" d="M258.506,-304.708C269.463,-295.388 282.946,-283.92 294.825,-273.816"/>
<polygon fill="black" stroke="black" points="297.392,-276.227 302.742,-267.082 292.857,-270.895 297.392,-276.227"/>
</g>
<!-- lasagne.layers.pool.MaxPool2DLayer object at 0x7efb5ba91710 -->
<g id="node11" class="node"><title>lasagne.layers.pool.MaxPool2DLayer object at 0x7efb5ba91710</title>
<polygon fill="#fcac41" stroke="black" points="225,-457 225,-495 429,-495 429,-457 225,-457"/>
<text text-anchor="middle" x="327" y="-479.8" font-family="Times,serif" font-size="14.00">Max Pool 1 2 MaxPool2DLayer</text>
<text text-anchor="middle" x="327" y="-464.8" font-family="Times,serif" font-size="14.00">Output shape: (None, 1, 100, 100)</text>
</g>
<!-- lasagne.layers.pool.MaxPool2DLayer object at 0x7efb5ba91710&#45;&gt;lasagne.layers.conv.Conv2DLayer object at 0x7efb39033950 -->
<g id="edge3" class="edge"><title>lasagne.layers.pool.MaxPool2DLayer object at 0x7efb5ba91710&#45;&gt;lasagne.layers.conv.Conv2DLayer object at 0x7efb39033950</title>
<path fill="none" stroke="black" d="M310.933,-456.708C302.983,-447.657 293.252,-436.579 284.568,-426.693"/>
<polygon fill="black" stroke="black" points="287.112,-424.285 277.883,-419.082 281.852,-428.905 287.112,-424.285"/>
</g>
<!-- lasagne.layers.pool.MaxPool2DLayer object at 0x7efb5ba91710&#45;&gt;lasagne.layers.conv.Conv2DLayer object at 0x7ef9645d0750 -->
<g id="edge9" class="edge"><title>lasagne.layers.pool.MaxPool2DLayer object at 0x7efb5ba91710&#45;&gt;lasagne.layers.conv.Conv2DLayer object at 0x7ef9645d0750</title>
<path fill="none" stroke="black" d="M343.887,-456.906C368.589,-430.441 414.695,-381.041 442.938,-350.781"/>
<polygon fill="black" stroke="black" points="445.788,-352.856 450.053,-343.158 440.671,-348.08 445.788,-352.856"/>
</g>
<!-- lasagne.layers.conv.Conv2DLayer object at 0x7ef964243d90&#45;&gt;lasagne.layers.pool.MaxPool2DLayer object at 0x7efb5ba91710 -->
<g id="edge2" class="edge"><title>lasagne.layers.conv.Conv2DLayer object at 0x7ef964243d90&#45;&gt;lasagne.layers.pool.MaxPool2DLayer object at 0x7efb5ba91710</title>
<path fill="none" stroke="black" d="M327,-532.708C327,-524.464 327,-514.538 327,-505.362"/>
<polygon fill="black" stroke="black" points="330.5,-505.082 327,-495.082 323.5,-505.082 330.5,-505.082"/>
</g>
</g>
</svg>
